<mxfile host="app.diagrams.net" agent="Mozilla/5.0 (Windows NT 10.0; Win64; x64) AppleWebKit/537.36 (KHTML, like Gecko) Chrome/131.0.0.0 Safari/537.36 Edg/131.0.0.0" version="26.0.3">
  <diagram id="C5RBs43oDa-KdzZeNtuy" name="Page-1">
    <mxGraphModel dx="1426" dy="789" grid="1" gridSize="10" guides="1" tooltips="1" connect="1" arrows="1" fold="1" page="1" pageScale="1" pageWidth="827" pageHeight="1169" math="0" shadow="0">
      <root>
        <mxCell id="WIyWlLk6GJQsqaUBKTNV-0" />
        <mxCell id="WIyWlLk6GJQsqaUBKTNV-1" parent="WIyWlLk6GJQsqaUBKTNV-0" />
        <mxCell id="9AIpKxDU_3ht3dwXM67G-1" value="" style="edgeStyle=orthogonalEdgeStyle;rounded=0;orthogonalLoop=1;jettySize=auto;html=1;" parent="WIyWlLk6GJQsqaUBKTNV-1" source="WIyWlLk6GJQsqaUBKTNV-3" target="9AIpKxDU_3ht3dwXM67G-0" edge="1">
          <mxGeometry relative="1" as="geometry" />
        </mxCell>
        <mxCell id="WIyWlLk6GJQsqaUBKTNV-3" value="Start" style="rounded=1;whiteSpace=wrap;html=1;fontSize=12;glass=0;strokeWidth=1;shadow=0;" parent="WIyWlLk6GJQsqaUBKTNV-1" vertex="1">
          <mxGeometry x="260" y="10" width="120" height="40" as="geometry" />
        </mxCell>
        <mxCell id="WIyWlLk6GJQsqaUBKTNV-4" value="Yes" style="rounded=0;html=1;jettySize=auto;orthogonalLoop=1;fontSize=11;endArrow=classic;endFill=1;endSize=6;strokeWidth=1;shadow=0;labelBackgroundColor=none;edgeStyle=orthogonalEdgeStyle;" parent="WIyWlLk6GJQsqaUBKTNV-1" source="WIyWlLk6GJQsqaUBKTNV-6" target="WIyWlLk6GJQsqaUBKTNV-10" edge="1">
          <mxGeometry y="20" relative="1" as="geometry">
            <mxPoint as="offset" />
          </mxGeometry>
        </mxCell>
        <mxCell id="WIyWlLk6GJQsqaUBKTNV-5" value="No" style="edgeStyle=orthogonalEdgeStyle;rounded=0;html=1;jettySize=auto;orthogonalLoop=1;fontSize=11;endArrow=block;endFill=0;endSize=8;strokeWidth=1;shadow=0;labelBackgroundColor=none;" parent="WIyWlLk6GJQsqaUBKTNV-1" source="WIyWlLk6GJQsqaUBKTNV-6" target="WIyWlLk6GJQsqaUBKTNV-7" edge="1">
          <mxGeometry y="10" relative="1" as="geometry">
            <mxPoint as="offset" />
          </mxGeometry>
        </mxCell>
        <mxCell id="WIyWlLk6GJQsqaUBKTNV-6" value="voltage&amp;gt;=0.409" style="rhombus;whiteSpace=wrap;html=1;shadow=0;fontFamily=Helvetica;fontSize=12;align=center;strokeWidth=1;spacing=6;spacingTop=-4;" parent="WIyWlLk6GJQsqaUBKTNV-1" vertex="1">
          <mxGeometry x="270" y="260" width="100" height="80" as="geometry" />
        </mxCell>
        <mxCell id="9AIpKxDU_3ht3dwXM67G-73" value="" style="edgeStyle=orthogonalEdgeStyle;rounded=0;orthogonalLoop=1;jettySize=auto;html=1;" parent="WIyWlLk6GJQsqaUBKTNV-1" source="WIyWlLk6GJQsqaUBKTNV-7" edge="1">
          <mxGeometry relative="1" as="geometry">
            <mxPoint x="600" y="300" as="targetPoint" />
          </mxGeometry>
        </mxCell>
        <mxCell id="WIyWlLk6GJQsqaUBKTNV-7" value="Turn on LED" style="rounded=1;whiteSpace=wrap;html=1;fontSize=12;glass=0;strokeWidth=1;shadow=0;strokeColor=#FF0000;" parent="WIyWlLk6GJQsqaUBKTNV-1" vertex="1">
          <mxGeometry x="420" y="280" width="120" height="40" as="geometry" />
        </mxCell>
        <mxCell id="WIyWlLk6GJQsqaUBKTNV-8" value="Yes" style="rounded=0;html=1;jettySize=auto;orthogonalLoop=1;fontSize=11;endArrow=classic;endFill=1;endSize=6;strokeWidth=1;shadow=0;labelBackgroundColor=none;edgeStyle=orthogonalEdgeStyle;entryX=0.5;entryY=0;entryDx=0;entryDy=0;" parent="WIyWlLk6GJQsqaUBKTNV-1" source="WIyWlLk6GJQsqaUBKTNV-10" target="9AIpKxDU_3ht3dwXM67G-14" edge="1">
          <mxGeometry x="0.3333" y="20" relative="1" as="geometry">
            <mxPoint as="offset" />
            <mxPoint x="320" y="520" as="targetPoint" />
          </mxGeometry>
        </mxCell>
        <mxCell id="WIyWlLk6GJQsqaUBKTNV-9" value="No" style="edgeStyle=orthogonalEdgeStyle;rounded=0;html=1;jettySize=auto;orthogonalLoop=1;fontSize=11;endArrow=block;endFill=0;endSize=8;strokeWidth=1;shadow=0;labelBackgroundColor=none;" parent="WIyWlLk6GJQsqaUBKTNV-1" source="WIyWlLk6GJQsqaUBKTNV-10" target="WIyWlLk6GJQsqaUBKTNV-12" edge="1">
          <mxGeometry y="10" relative="1" as="geometry">
            <mxPoint as="offset" />
          </mxGeometry>
        </mxCell>
        <mxCell id="WIyWlLk6GJQsqaUBKTNV-10" value="voltage&amp;gt;=0.487" style="rhombus;whiteSpace=wrap;html=1;shadow=0;fontFamily=Helvetica;fontSize=12;align=center;strokeWidth=1;spacing=6;spacingTop=-4;" parent="WIyWlLk6GJQsqaUBKTNV-1" vertex="1">
          <mxGeometry x="270" y="380" width="100" height="80" as="geometry" />
        </mxCell>
        <mxCell id="9AIpKxDU_3ht3dwXM67G-75" value="" style="edgeStyle=orthogonalEdgeStyle;rounded=0;orthogonalLoop=1;jettySize=auto;html=1;" parent="WIyWlLk6GJQsqaUBKTNV-1" source="WIyWlLk6GJQsqaUBKTNV-12" edge="1">
          <mxGeometry relative="1" as="geometry">
            <mxPoint x="600" y="420" as="targetPoint" />
          </mxGeometry>
        </mxCell>
        <mxCell id="WIyWlLk6GJQsqaUBKTNV-12" value="Choose R3a &amp;amp; R1a" style="rounded=1;whiteSpace=wrap;html=1;fontSize=12;glass=0;strokeWidth=1;shadow=0;" parent="WIyWlLk6GJQsqaUBKTNV-1" vertex="1">
          <mxGeometry x="420" y="400" width="120" height="40" as="geometry" />
        </mxCell>
        <mxCell id="9AIpKxDU_3ht3dwXM67G-3" value="" style="edgeStyle=orthogonalEdgeStyle;rounded=0;orthogonalLoop=1;jettySize=auto;html=1;" parent="WIyWlLk6GJQsqaUBKTNV-1" source="9AIpKxDU_3ht3dwXM67G-0" target="9AIpKxDU_3ht3dwXM67G-2" edge="1">
          <mxGeometry relative="1" as="geometry" />
        </mxCell>
        <mxCell id="9AIpKxDU_3ht3dwXM67G-0" value="Init" style="rounded=1;whiteSpace=wrap;html=1;fontSize=12;glass=0;strokeWidth=1;shadow=0;" parent="WIyWlLk6GJQsqaUBKTNV-1" vertex="1">
          <mxGeometry x="260" y="80" width="120" height="40" as="geometry" />
        </mxCell>
        <mxCell id="9AIpKxDU_3ht3dwXM67G-6" value="" style="edgeStyle=orthogonalEdgeStyle;rounded=0;orthogonalLoop=1;jettySize=auto;html=1;" parent="WIyWlLk6GJQsqaUBKTNV-1" source="9AIpKxDU_3ht3dwXM67G-2" edge="1">
          <mxGeometry relative="1" as="geometry">
            <mxPoint x="320" y="200" as="targetPoint" />
          </mxGeometry>
        </mxCell>
        <mxCell id="9AIpKxDU_3ht3dwXM67G-2" value="Average &amp;amp; Calibrate&amp;nbsp;&lt;div&gt;ADC value&lt;/div&gt;" style="whiteSpace=wrap;html=1;rounded=1;glass=0;strokeWidth=1;shadow=0;" parent="WIyWlLk6GJQsqaUBKTNV-1" vertex="1">
          <mxGeometry x="260" y="140" width="120" height="40" as="geometry" />
        </mxCell>
        <mxCell id="9AIpKxDU_3ht3dwXM67G-10" value="Yes" style="rounded=0;html=1;jettySize=auto;orthogonalLoop=1;fontSize=11;endArrow=classic;endFill=1;endSize=6;strokeWidth=1;shadow=0;labelBackgroundColor=none;edgeStyle=orthogonalEdgeStyle;entryX=0.5;entryY=0;entryDx=0;entryDy=0;" parent="WIyWlLk6GJQsqaUBKTNV-1" source="9AIpKxDU_3ht3dwXM67G-14" target="9AIpKxDU_3ht3dwXM67G-26" edge="1">
          <mxGeometry x="0.3333" y="20" relative="1" as="geometry">
            <mxPoint as="offset" />
            <mxPoint x="320" y="650" as="targetPoint" />
          </mxGeometry>
        </mxCell>
        <mxCell id="9AIpKxDU_3ht3dwXM67G-77" value="" style="edgeStyle=orthogonalEdgeStyle;rounded=0;orthogonalLoop=1;jettySize=auto;html=1;" parent="WIyWlLk6GJQsqaUBKTNV-1" edge="1">
          <mxGeometry relative="1" as="geometry">
            <mxPoint x="370" y="539.8" as="sourcePoint" />
            <mxPoint x="600" y="539.8" as="targetPoint" />
            <Array as="points">
              <mxPoint x="560" y="539.8" />
              <mxPoint x="560" y="539.8" />
            </Array>
          </mxGeometry>
        </mxCell>
        <mxCell id="9AIpKxDU_3ht3dwXM67G-78" value="No" style="edgeLabel;html=1;align=center;verticalAlign=middle;resizable=0;points=[];" parent="9AIpKxDU_3ht3dwXM67G-77" vertex="1" connectable="0">
          <mxGeometry x="-0.8379" relative="1" as="geometry">
            <mxPoint x="11" y="-10" as="offset" />
          </mxGeometry>
        </mxCell>
        <mxCell id="9AIpKxDU_3ht3dwXM67G-14" value="voltage&amp;gt;=0.493" style="rhombus;whiteSpace=wrap;html=1;shadow=0;fontFamily=Helvetica;fontSize=12;align=center;strokeWidth=1;spacing=6;spacingTop=-4;" parent="WIyWlLk6GJQsqaUBKTNV-1" vertex="1">
          <mxGeometry x="270" y="500" width="100" height="80" as="geometry" />
        </mxCell>
        <mxCell id="9AIpKxDU_3ht3dwXM67G-15" value="Yes" style="rounded=0;html=1;jettySize=auto;orthogonalLoop=1;fontSize=11;endArrow=classic;endFill=1;endSize=6;strokeWidth=1;shadow=0;labelBackgroundColor=none;edgeStyle=orthogonalEdgeStyle;" parent="WIyWlLk6GJQsqaUBKTNV-1" source="9AIpKxDU_3ht3dwXM67G-26" target="9AIpKxDU_3ht3dwXM67G-20" edge="1">
          <mxGeometry y="20" relative="1" as="geometry">
            <mxPoint as="offset" />
          </mxGeometry>
        </mxCell>
        <mxCell id="9AIpKxDU_3ht3dwXM67G-16" value="No" style="edgeStyle=orthogonalEdgeStyle;rounded=0;html=1;jettySize=auto;orthogonalLoop=1;fontSize=11;endArrow=block;endFill=0;endSize=8;strokeWidth=1;shadow=0;labelBackgroundColor=none;" parent="WIyWlLk6GJQsqaUBKTNV-1" source="9AIpKxDU_3ht3dwXM67G-26" target="9AIpKxDU_3ht3dwXM67G-17" edge="1">
          <mxGeometry y="10" relative="1" as="geometry">
            <mxPoint as="offset" />
          </mxGeometry>
        </mxCell>
        <mxCell id="9AIpKxDU_3ht3dwXM67G-71" style="edgeStyle=orthogonalEdgeStyle;rounded=0;orthogonalLoop=1;jettySize=auto;html=1;" parent="WIyWlLk6GJQsqaUBKTNV-1" source="9AIpKxDU_3ht3dwXM67G-17" edge="1">
          <mxGeometry relative="1" as="geometry">
            <mxPoint x="600" y="660" as="targetPoint" />
            <Array as="points">
              <mxPoint x="530" y="660" />
              <mxPoint x="530" y="660" />
            </Array>
          </mxGeometry>
        </mxCell>
        <mxCell id="9AIpKxDU_3ht3dwXM67G-17" value="Choose R3b &amp;amp; R1b" style="rounded=1;whiteSpace=wrap;html=1;fontSize=12;glass=0;strokeWidth=1;shadow=0;" parent="WIyWlLk6GJQsqaUBKTNV-1" vertex="1">
          <mxGeometry x="420" y="640" width="120" height="40" as="geometry" />
        </mxCell>
        <mxCell id="9AIpKxDU_3ht3dwXM67G-18" value="No" style="rounded=0;html=1;jettySize=auto;orthogonalLoop=1;fontSize=11;endArrow=classic;endFill=1;endSize=6;strokeWidth=1;shadow=0;labelBackgroundColor=none;edgeStyle=orthogonalEdgeStyle;entryX=0.5;entryY=0;entryDx=0;entryDy=0;" parent="WIyWlLk6GJQsqaUBKTNV-1" source="9AIpKxDU_3ht3dwXM67G-20" target="9AIpKxDU_3ht3dwXM67G-25" edge="1">
          <mxGeometry x="0.3333" y="20" relative="1" as="geometry">
            <mxPoint as="offset" />
            <mxPoint x="320" y="920" as="targetPoint" />
          </mxGeometry>
        </mxCell>
        <mxCell id="9AIpKxDU_3ht3dwXM67G-19" value="No" style="edgeStyle=orthogonalEdgeStyle;rounded=0;html=1;jettySize=auto;orthogonalLoop=1;fontSize=11;endArrow=classic;endFill=1;endSize=6;strokeWidth=1;shadow=0;labelBackgroundColor=none;" parent="WIyWlLk6GJQsqaUBKTNV-1" source="9AIpKxDU_3ht3dwXM67G-20" edge="1">
          <mxGeometry y="10" relative="1" as="geometry">
            <mxPoint as="offset" />
            <mxPoint x="600" y="780" as="targetPoint" />
            <Array as="points">
              <mxPoint x="540" y="780" />
              <mxPoint x="540" y="780" />
            </Array>
          </mxGeometry>
        </mxCell>
        <mxCell id="9AIpKxDU_3ht3dwXM67G-20" value="voltage&amp;gt;=0.797" style="rhombus;whiteSpace=wrap;html=1;shadow=0;fontFamily=Helvetica;fontSize=12;align=center;strokeWidth=1;spacing=6;spacingTop=-4;" parent="WIyWlLk6GJQsqaUBKTNV-1" vertex="1">
          <mxGeometry x="270" y="740" width="100" height="80" as="geometry" />
        </mxCell>
        <mxCell id="9AIpKxDU_3ht3dwXM67G-22" value="Yes" style="rounded=0;html=1;jettySize=auto;orthogonalLoop=1;fontSize=11;endArrow=classic;endFill=1;endSize=6;strokeWidth=1;shadow=0;labelBackgroundColor=none;edgeStyle=orthogonalEdgeStyle;entryX=0.5;entryY=0;entryDx=0;entryDy=0;" parent="WIyWlLk6GJQsqaUBKTNV-1" source="9AIpKxDU_3ht3dwXM67G-25" target="9AIpKxDU_3ht3dwXM67G-29" edge="1">
          <mxGeometry x="0.3333" y="20" relative="1" as="geometry">
            <mxPoint as="offset" />
            <mxPoint x="320" y="1060" as="targetPoint" />
          </mxGeometry>
        </mxCell>
        <mxCell id="9AIpKxDU_3ht3dwXM67G-23" value="No" style="edgeStyle=orthogonalEdgeStyle;rounded=0;html=1;jettySize=auto;orthogonalLoop=1;fontSize=11;endArrow=block;endFill=0;endSize=8;strokeWidth=1;shadow=0;labelBackgroundColor=none;" parent="WIyWlLk6GJQsqaUBKTNV-1" source="9AIpKxDU_3ht3dwXM67G-25" target="9AIpKxDU_3ht3dwXM67G-24" edge="1">
          <mxGeometry y="10" relative="1" as="geometry">
            <mxPoint as="offset" />
          </mxGeometry>
        </mxCell>
        <mxCell id="9AIpKxDU_3ht3dwXM67G-80" value="" style="edgeStyle=orthogonalEdgeStyle;rounded=0;orthogonalLoop=1;jettySize=auto;html=1;" parent="WIyWlLk6GJQsqaUBKTNV-1" source="9AIpKxDU_3ht3dwXM67G-24" edge="1">
          <mxGeometry relative="1" as="geometry">
            <mxPoint x="600" y="900" as="targetPoint" />
          </mxGeometry>
        </mxCell>
        <mxCell id="9AIpKxDU_3ht3dwXM67G-24" value="Choose R3c &amp;amp; R1c" style="rounded=1;whiteSpace=wrap;html=1;fontSize=12;glass=0;strokeWidth=1;shadow=0;" parent="WIyWlLk6GJQsqaUBKTNV-1" vertex="1">
          <mxGeometry x="420" y="880" width="120" height="40" as="geometry" />
        </mxCell>
        <mxCell id="9AIpKxDU_3ht3dwXM67G-25" value="voltage&amp;gt;=1.236" style="rhombus;whiteSpace=wrap;html=1;shadow=0;fontFamily=Helvetica;fontSize=12;align=center;strokeWidth=1;spacing=6;spacingTop=-4;" parent="WIyWlLk6GJQsqaUBKTNV-1" vertex="1">
          <mxGeometry x="270" y="860" width="100" height="80" as="geometry" />
        </mxCell>
        <mxCell id="9AIpKxDU_3ht3dwXM67G-26" value="voltage&amp;gt;=0.781" style="rhombus;whiteSpace=wrap;html=1;shadow=0;fontFamily=Helvetica;fontSize=12;align=center;strokeWidth=1;spacing=6;spacingTop=-4;" parent="WIyWlLk6GJQsqaUBKTNV-1" vertex="1">
          <mxGeometry x="270" y="620" width="100" height="80" as="geometry" />
        </mxCell>
        <mxCell id="9AIpKxDU_3ht3dwXM67G-27" value="Yes" style="rounded=0;html=1;jettySize=auto;orthogonalLoop=1;fontSize=11;endArrow=classic;endFill=1;endSize=6;strokeWidth=1;shadow=0;labelBackgroundColor=none;edgeStyle=orthogonalEdgeStyle;entryX=0.5;entryY=0;entryDx=0;entryDy=0;" parent="WIyWlLk6GJQsqaUBKTNV-1" source="9AIpKxDU_3ht3dwXM67G-29" target="9AIpKxDU_3ht3dwXM67G-34" edge="1">
          <mxGeometry x="0.3333" y="20" relative="1" as="geometry">
            <mxPoint as="offset" />
            <mxPoint x="320" y="1200" as="targetPoint" />
          </mxGeometry>
        </mxCell>
        <mxCell id="9AIpKxDU_3ht3dwXM67G-28" value="No" style="edgeStyle=orthogonalEdgeStyle;rounded=0;html=1;jettySize=auto;orthogonalLoop=1;fontSize=11;endArrow=classic;endFill=1;endSize=6;strokeWidth=1;shadow=0;labelBackgroundColor=none;" parent="WIyWlLk6GJQsqaUBKTNV-1" source="9AIpKxDU_3ht3dwXM67G-29" edge="1">
          <mxGeometry x="-0.8261" y="10" relative="1" as="geometry">
            <mxPoint as="offset" />
            <mxPoint x="600" y="1020" as="targetPoint" />
          </mxGeometry>
        </mxCell>
        <mxCell id="9AIpKxDU_3ht3dwXM67G-29" value="voltage&amp;gt;=1.286" style="rhombus;whiteSpace=wrap;html=1;shadow=0;fontFamily=Helvetica;fontSize=12;align=center;strokeWidth=1;spacing=6;spacingTop=-4;" parent="WIyWlLk6GJQsqaUBKTNV-1" vertex="1">
          <mxGeometry x="270" y="980" width="100" height="80" as="geometry" />
        </mxCell>
        <mxCell id="9AIpKxDU_3ht3dwXM67G-31" value="" style="rounded=0;html=1;jettySize=auto;orthogonalLoop=1;fontSize=11;endArrow=classic;endFill=1;endSize=6;strokeWidth=1;shadow=0;labelBackgroundColor=none;edgeStyle=orthogonalEdgeStyle;exitX=0.5;exitY=1;exitDx=0;exitDy=0;" parent="WIyWlLk6GJQsqaUBKTNV-1" source="9AIpKxDU_3ht3dwXM67G-81" edge="1">
          <mxGeometry x="-0.8222" y="10" relative="1" as="geometry">
            <mxPoint as="offset" />
            <mxPoint x="320" y="1260" as="sourcePoint" />
            <mxPoint x="320" y="130" as="targetPoint" />
            <Array as="points">
              <mxPoint x="320" y="1270" />
              <mxPoint x="600" y="1270" />
              <mxPoint x="600" y="130" />
            </Array>
          </mxGeometry>
        </mxCell>
        <mxCell id="9AIpKxDU_3ht3dwXM67G-32" value="No" style="edgeStyle=orthogonalEdgeStyle;rounded=0;html=1;jettySize=auto;orthogonalLoop=1;fontSize=11;endArrow=block;endFill=0;endSize=8;strokeWidth=1;shadow=0;labelBackgroundColor=none;" parent="WIyWlLk6GJQsqaUBKTNV-1" source="9AIpKxDU_3ht3dwXM67G-34" target="9AIpKxDU_3ht3dwXM67G-33" edge="1">
          <mxGeometry y="10" relative="1" as="geometry">
            <mxPoint as="offset" />
          </mxGeometry>
        </mxCell>
        <mxCell id="r3oVHwlRVVATnDZpQC8R-0" style="edgeStyle=orthogonalEdgeStyle;rounded=0;orthogonalLoop=1;jettySize=auto;html=1;" edge="1" parent="WIyWlLk6GJQsqaUBKTNV-1" source="9AIpKxDU_3ht3dwXM67G-33">
          <mxGeometry relative="1" as="geometry">
            <mxPoint x="600" y="1140" as="targetPoint" />
          </mxGeometry>
        </mxCell>
        <mxCell id="9AIpKxDU_3ht3dwXM67G-33" value="Choose R3d &amp;amp; R1d" style="rounded=1;whiteSpace=wrap;html=1;fontSize=12;glass=0;strokeWidth=1;shadow=0;" parent="WIyWlLk6GJQsqaUBKTNV-1" vertex="1">
          <mxGeometry x="420" y="1120" width="120" height="40" as="geometry" />
        </mxCell>
        <mxCell id="9AIpKxDU_3ht3dwXM67G-82" value="" style="edgeStyle=orthogonalEdgeStyle;rounded=0;orthogonalLoop=1;jettySize=auto;html=1;" parent="WIyWlLk6GJQsqaUBKTNV-1" source="9AIpKxDU_3ht3dwXM67G-34" target="9AIpKxDU_3ht3dwXM67G-81" edge="1">
          <mxGeometry relative="1" as="geometry" />
        </mxCell>
        <mxCell id="9AIpKxDU_3ht3dwXM67G-83" value="Yes" style="edgeLabel;html=1;align=center;verticalAlign=middle;resizable=0;points=[];" parent="9AIpKxDU_3ht3dwXM67G-82" vertex="1" connectable="0">
          <mxGeometry x="-0.2259" y="1" relative="1" as="geometry">
            <mxPoint x="9" y="-9" as="offset" />
          </mxGeometry>
        </mxCell>
        <mxCell id="9AIpKxDU_3ht3dwXM67G-34" value="voltage&amp;gt;=2.315" style="rhombus;whiteSpace=wrap;html=1;shadow=0;fontFamily=Helvetica;fontSize=12;align=center;strokeWidth=1;spacing=6;spacingTop=-4;" parent="WIyWlLk6GJQsqaUBKTNV-1" vertex="1">
          <mxGeometry x="270" y="1100" width="100" height="80" as="geometry" />
        </mxCell>
        <mxCell id="9AIpKxDU_3ht3dwXM67G-48" value="" style="edgeStyle=orthogonalEdgeStyle;rounded=0;orthogonalLoop=1;jettySize=auto;html=1;" parent="WIyWlLk6GJQsqaUBKTNV-1" source="9AIpKxDU_3ht3dwXM67G-47" target="WIyWlLk6GJQsqaUBKTNV-6" edge="1">
          <mxGeometry relative="1" as="geometry" />
        </mxCell>
        <mxCell id="9AIpKxDU_3ht3dwXM67G-47" value="Turn off LED" style="whiteSpace=wrap;html=1;rounded=1;glass=0;strokeWidth=1;shadow=0;" parent="WIyWlLk6GJQsqaUBKTNV-1" vertex="1">
          <mxGeometry x="260" y="200" width="120" height="40" as="geometry" />
        </mxCell>
        <mxCell id="9AIpKxDU_3ht3dwXM67G-81" value="Turn on LED" style="rounded=1;whiteSpace=wrap;html=1;fontSize=12;glass=0;strokeWidth=1;shadow=0;strokeColor=light-dark(#ff0000, #ededed);" parent="WIyWlLk6GJQsqaUBKTNV-1" vertex="1">
          <mxGeometry x="260" y="1210" width="120" height="40" as="geometry" />
        </mxCell>
        <mxCell id="r3oVHwlRVVATnDZpQC8R-1" value="" style="group" vertex="1" connectable="0" parent="WIyWlLk6GJQsqaUBKTNV-1">
          <mxGeometry x="40" y="225" width="110" height="820" as="geometry" />
        </mxCell>
        <mxCell id="9AIpKxDU_3ht3dwXM67G-51" value="" style="strokeWidth=2;html=1;shape=mxgraph.flowchart.annotation_2;align=left;labelPosition=right;pointerEvents=1;direction=east;" parent="r3oVHwlRVVATnDZpQC8R-1" vertex="1">
          <mxGeometry x="60" width="50" height="100" as="geometry" />
        </mxCell>
        <mxCell id="9AIpKxDU_3ht3dwXM67G-52" value="Stage a" style="text;html=1;align=center;verticalAlign=middle;resizable=0;points=[];autosize=1;strokeColor=none;fillColor=none;" parent="r3oVHwlRVVATnDZpQC8R-1" vertex="1">
          <mxGeometry y="35" width="60" height="30" as="geometry" />
        </mxCell>
        <mxCell id="9AIpKxDU_3ht3dwXM67G-53" value="" style="strokeWidth=2;html=1;shape=mxgraph.flowchart.annotation_2;align=left;labelPosition=right;pointerEvents=1;direction=east;" parent="r3oVHwlRVVATnDZpQC8R-1" vertex="1">
          <mxGeometry x="60" y="120" width="50" height="100" as="geometry" />
        </mxCell>
        <mxCell id="9AIpKxDU_3ht3dwXM67G-54" value="Idle" style="text;html=1;align=center;verticalAlign=middle;resizable=0;points=[];autosize=1;strokeColor=none;fillColor=none;" parent="r3oVHwlRVVATnDZpQC8R-1" vertex="1">
          <mxGeometry x="10" y="165" width="40" height="30" as="geometry" />
        </mxCell>
        <mxCell id="9AIpKxDU_3ht3dwXM67G-59" value="" style="strokeWidth=2;html=1;shape=mxgraph.flowchart.annotation_2;align=left;labelPosition=right;pointerEvents=1;direction=east;" parent="r3oVHwlRVVATnDZpQC8R-1" vertex="1">
          <mxGeometry x="60" y="240" width="50" height="100" as="geometry" />
        </mxCell>
        <mxCell id="9AIpKxDU_3ht3dwXM67G-60" value="Stage b" style="text;html=1;align=center;verticalAlign=middle;resizable=0;points=[];autosize=1;strokeColor=none;fillColor=none;" parent="r3oVHwlRVVATnDZpQC8R-1" vertex="1">
          <mxGeometry y="275" width="60" height="30" as="geometry" />
        </mxCell>
        <mxCell id="9AIpKxDU_3ht3dwXM67G-61" value="" style="strokeWidth=2;html=1;shape=mxgraph.flowchart.annotation_2;align=left;labelPosition=right;pointerEvents=1;direction=east;" parent="r3oVHwlRVVATnDZpQC8R-1" vertex="1">
          <mxGeometry x="60" y="360" width="50" height="100" as="geometry" />
        </mxCell>
        <mxCell id="9AIpKxDU_3ht3dwXM67G-62" value="Idle" style="text;html=1;align=center;verticalAlign=middle;resizable=0;points=[];autosize=1;strokeColor=none;fillColor=none;" parent="r3oVHwlRVVATnDZpQC8R-1" vertex="1">
          <mxGeometry x="10" y="405" width="40" height="30" as="geometry" />
        </mxCell>
        <mxCell id="9AIpKxDU_3ht3dwXM67G-63" value="" style="strokeWidth=2;html=1;shape=mxgraph.flowchart.annotation_2;align=left;labelPosition=right;pointerEvents=1;direction=east;" parent="r3oVHwlRVVATnDZpQC8R-1" vertex="1">
          <mxGeometry x="60" y="480" width="50" height="100" as="geometry" />
        </mxCell>
        <mxCell id="9AIpKxDU_3ht3dwXM67G-64" value="Stage c" style="text;html=1;align=center;verticalAlign=middle;resizable=0;points=[];autosize=1;strokeColor=none;fillColor=none;" parent="r3oVHwlRVVATnDZpQC8R-1" vertex="1">
          <mxGeometry y="515" width="60" height="30" as="geometry" />
        </mxCell>
        <mxCell id="9AIpKxDU_3ht3dwXM67G-65" value="" style="strokeWidth=2;html=1;shape=mxgraph.flowchart.annotation_2;align=left;labelPosition=right;pointerEvents=1;direction=east;" parent="r3oVHwlRVVATnDZpQC8R-1" vertex="1">
          <mxGeometry x="60" y="600" width="50" height="100" as="geometry" />
        </mxCell>
        <mxCell id="9AIpKxDU_3ht3dwXM67G-66" value="Idle" style="text;html=1;align=center;verticalAlign=middle;resizable=0;points=[];autosize=1;strokeColor=none;fillColor=none;" parent="r3oVHwlRVVATnDZpQC8R-1" vertex="1">
          <mxGeometry x="10" y="645" width="40" height="30" as="geometry" />
        </mxCell>
        <mxCell id="9AIpKxDU_3ht3dwXM67G-67" value="" style="strokeWidth=2;html=1;shape=mxgraph.flowchart.annotation_2;align=left;labelPosition=right;pointerEvents=1;direction=east;" parent="r3oVHwlRVVATnDZpQC8R-1" vertex="1">
          <mxGeometry x="60" y="720" width="50" height="100" as="geometry" />
        </mxCell>
        <mxCell id="9AIpKxDU_3ht3dwXM67G-68" value="Stage d" style="text;html=1;align=center;verticalAlign=middle;resizable=0;points=[];autosize=1;strokeColor=none;fillColor=none;" parent="r3oVHwlRVVATnDZpQC8R-1" vertex="1">
          <mxGeometry y="755" width="60" height="30" as="geometry" />
        </mxCell>
        <mxCell id="r3oVHwlRVVATnDZpQC8R-2" value="" style="endArrow=classic;html=1;rounded=0;" edge="1" parent="WIyWlLk6GJQsqaUBKTNV-1">
          <mxGeometry width="50" height="50" relative="1" as="geometry">
            <mxPoint x="200" y="200" as="sourcePoint" />
            <mxPoint x="200" y="1091.4285714285713" as="targetPoint" />
          </mxGeometry>
        </mxCell>
        <mxCell id="r3oVHwlRVVATnDZpQC8R-3" value="&lt;span style=&quot;color: rgb(0, 0, 0); font-family: Helvetica; font-size: 12px; font-style: normal; font-variant-ligatures: normal; font-variant-caps: normal; font-weight: 400; letter-spacing: normal; orphans: 2; text-align: center; text-indent: 0px; text-transform: none; widows: 2; word-spacing: 0px; -webkit-text-stroke-width: 0px; white-space: normal; background-color: rgb(251, 251, 251); text-decoration-thickness: initial; text-decoration-style: initial; text-decoration-color: initial; display: inline !important; float: none;&quot;&gt;0.409&lt;/span&gt;" style="text;whiteSpace=wrap;html=1;" vertex="1" parent="WIyWlLk6GJQsqaUBKTNV-1">
          <mxGeometry x="160" y="210" width="60" height="40" as="geometry" />
        </mxCell>
        <mxCell id="r3oVHwlRVVATnDZpQC8R-4" value="&lt;span style=&quot;color: rgb(0, 0, 0); font-family: Helvetica; font-size: 12px; font-style: normal; font-variant-ligatures: normal; font-variant-caps: normal; font-weight: 400; letter-spacing: normal; orphans: 2; text-align: center; text-indent: 0px; text-transform: none; widows: 2; word-spacing: 0px; -webkit-text-stroke-width: 0px; white-space: normal; background-color: rgb(251, 251, 251); text-decoration-thickness: initial; text-decoration-style: initial; text-decoration-color: initial; float: none; display: inline !important;&quot;&gt;0.487&lt;/span&gt;" style="text;whiteSpace=wrap;html=1;" vertex="1" parent="WIyWlLk6GJQsqaUBKTNV-1">
          <mxGeometry x="160" y="320" width="50" height="40" as="geometry" />
        </mxCell>
        <mxCell id="r3oVHwlRVVATnDZpQC8R-5" value="&lt;span style=&quot;color: rgb(0, 0, 0); font-family: Helvetica; font-size: 12px; font-style: normal; font-variant-ligatures: normal; font-variant-caps: normal; font-weight: 400; letter-spacing: normal; orphans: 2; text-align: center; text-indent: 0px; text-transform: none; widows: 2; word-spacing: 0px; -webkit-text-stroke-width: 0px; white-space: normal; background-color: rgb(251, 251, 251); text-decoration-thickness: initial; text-decoration-style: initial; text-decoration-color: initial; display: inline !important; float: none;&quot;&gt;0.493&lt;/span&gt;" style="text;whiteSpace=wrap;html=1;" vertex="1" parent="WIyWlLk6GJQsqaUBKTNV-1">
          <mxGeometry x="160" y="440" width="60" height="40" as="geometry" />
        </mxCell>
        <mxCell id="r3oVHwlRVVATnDZpQC8R-6" value="&lt;span style=&quot;color: rgb(0, 0, 0); font-family: Helvetica; font-size: 12px; font-style: normal; font-variant-ligatures: normal; font-variant-caps: normal; font-weight: 400; letter-spacing: normal; orphans: 2; text-align: center; text-indent: 0px; text-transform: none; widows: 2; word-spacing: 0px; -webkit-text-stroke-width: 0px; white-space: normal; background-color: rgb(251, 251, 251); text-decoration-thickness: initial; text-decoration-style: initial; text-decoration-color: initial; display: inline !important; float: none;&quot;&gt;0.781&lt;/span&gt;" style="text;whiteSpace=wrap;html=1;" vertex="1" parent="WIyWlLk6GJQsqaUBKTNV-1">
          <mxGeometry x="155" y="560" width="60" height="40" as="geometry" />
        </mxCell>
        <mxCell id="r3oVHwlRVVATnDZpQC8R-7" value="&lt;span style=&quot;color: rgb(0, 0, 0); font-family: Helvetica; font-size: 12px; font-style: normal; font-variant-ligatures: normal; font-variant-caps: normal; font-weight: 400; letter-spacing: normal; orphans: 2; text-align: center; text-indent: 0px; text-transform: none; widows: 2; word-spacing: 0px; -webkit-text-stroke-width: 0px; white-space: normal; background-color: rgb(251, 251, 251); text-decoration-thickness: initial; text-decoration-style: initial; text-decoration-color: initial; display: inline !important; float: none;&quot;&gt;0.797&lt;/span&gt;" style="text;whiteSpace=wrap;html=1;" vertex="1" parent="WIyWlLk6GJQsqaUBKTNV-1">
          <mxGeometry x="155" y="680" width="60" height="40" as="geometry" />
        </mxCell>
        <mxCell id="r3oVHwlRVVATnDZpQC8R-8" value="&lt;span style=&quot;color: rgb(0, 0, 0); font-family: Helvetica; font-size: 12px; font-style: normal; font-variant-ligatures: normal; font-variant-caps: normal; font-weight: 400; letter-spacing: normal; orphans: 2; text-align: center; text-indent: 0px; text-transform: none; widows: 2; word-spacing: 0px; -webkit-text-stroke-width: 0px; white-space: normal; background-color: rgb(251, 251, 251); text-decoration-thickness: initial; text-decoration-style: initial; text-decoration-color: initial; display: inline !important; float: none;&quot;&gt;1.236&lt;/span&gt;" style="text;whiteSpace=wrap;html=1;" vertex="1" parent="WIyWlLk6GJQsqaUBKTNV-1">
          <mxGeometry x="155" y="800" width="60" height="40" as="geometry" />
        </mxCell>
        <mxCell id="r3oVHwlRVVATnDZpQC8R-9" value="&lt;span style=&quot;color: rgb(0, 0, 0); font-family: Helvetica; font-size: 12px; font-style: normal; font-variant-ligatures: normal; font-variant-caps: normal; font-weight: 400; letter-spacing: normal; orphans: 2; text-align: center; text-indent: 0px; text-transform: none; widows: 2; word-spacing: 0px; -webkit-text-stroke-width: 0px; white-space: normal; background-color: rgb(251, 251, 251); text-decoration-thickness: initial; text-decoration-style: initial; text-decoration-color: initial; display: inline !important; float: none;&quot;&gt;1.286&lt;/span&gt;" style="text;whiteSpace=wrap;html=1;" vertex="1" parent="WIyWlLk6GJQsqaUBKTNV-1">
          <mxGeometry x="150" y="920" width="60" height="40" as="geometry" />
        </mxCell>
        <mxCell id="r3oVHwlRVVATnDZpQC8R-10" value="&lt;span style=&quot;color: rgb(0, 0, 0); font-family: Helvetica; font-size: 12px; font-style: normal; font-variant-ligatures: normal; font-variant-caps: normal; font-weight: 400; letter-spacing: normal; orphans: 2; text-align: center; text-indent: 0px; text-transform: none; widows: 2; word-spacing: 0px; -webkit-text-stroke-width: 0px; white-space: normal; background-color: rgb(251, 251, 251); text-decoration-thickness: initial; text-decoration-style: initial; text-decoration-color: initial; display: inline !important; float: none;&quot;&gt;2.315&lt;/span&gt;" style="text;whiteSpace=wrap;html=1;" vertex="1" parent="WIyWlLk6GJQsqaUBKTNV-1">
          <mxGeometry x="155" y="1030" width="60" height="40" as="geometry" />
        </mxCell>
        <mxCell id="r3oVHwlRVVATnDZpQC8R-11" value="Sensor Voltage (V)" style="text;html=1;align=center;verticalAlign=middle;resizable=0;points=[];autosize=1;strokeColor=none;fillColor=none;" vertex="1" parent="WIyWlLk6GJQsqaUBKTNV-1">
          <mxGeometry x="150" y="1110" width="120" height="30" as="geometry" />
        </mxCell>
        <mxCell id="r3oVHwlRVVATnDZpQC8R-14" value="" style="edgeStyle=orthogonalEdgeStyle;rounded=0;orthogonalLoop=1;jettySize=auto;html=1;" edge="1" parent="WIyWlLk6GJQsqaUBKTNV-1" source="r3oVHwlRVVATnDZpQC8R-12" target="r3oVHwlRVVATnDZpQC8R-13">
          <mxGeometry relative="1" as="geometry" />
        </mxCell>
        <mxCell id="r3oVHwlRVVATnDZpQC8R-12" value="ADC conv done" style="rounded=1;whiteSpace=wrap;html=1;fontSize=12;glass=0;strokeWidth=1;shadow=0;" vertex="1" parent="WIyWlLk6GJQsqaUBKTNV-1">
          <mxGeometry x="630" y="30" width="120" height="20" as="geometry" />
        </mxCell>
        <mxCell id="r3oVHwlRVVATnDZpQC8R-16" value="" style="edgeStyle=orthogonalEdgeStyle;rounded=0;orthogonalLoop=1;jettySize=auto;html=1;" edge="1" parent="WIyWlLk6GJQsqaUBKTNV-1" source="r3oVHwlRVVATnDZpQC8R-13" target="r3oVHwlRVVATnDZpQC8R-15">
          <mxGeometry relative="1" as="geometry" />
        </mxCell>
        <mxCell id="r3oVHwlRVVATnDZpQC8R-13" value="save ADC value" style="whiteSpace=wrap;html=1;rounded=1;glass=0;strokeWidth=1;shadow=0;" vertex="1" parent="WIyWlLk6GJQsqaUBKTNV-1">
          <mxGeometry x="630" y="70" width="120" height="20" as="geometry" />
        </mxCell>
        <mxCell id="r3oVHwlRVVATnDZpQC8R-15" value="RETI" style="whiteSpace=wrap;html=1;rounded=1;glass=0;strokeWidth=1;shadow=0;" vertex="1" parent="WIyWlLk6GJQsqaUBKTNV-1">
          <mxGeometry x="630" y="110" width="120" height="20" as="geometry" />
        </mxCell>
        <mxCell id="r3oVHwlRVVATnDZpQC8R-17" value="&lt;div style=&quot;background-color:#2f2f2f;padding:0px 0px 0px 2px;&quot;&gt;&lt;div style=&quot;color:#aaaaaa;background-color:#2f2f2f;font-family:&amp;quot;Consolas&amp;quot;;font-size:10pt;white-space:pre;&quot;&gt;&lt;p style=&quot;margin:0;&quot;&gt;&lt;span style=&quot;color:#dd2867;font-weight:bold;&quot;&gt;void&lt;/span&gt;&lt;span style=&quot;color:#d9e8f7;&quot;&gt; &lt;/span&gt;&lt;span style=&quot;color:#0dd140;font-weight:bold;&quot;&gt;HAL_ADC_ConvCpltCallback&lt;/span&gt;&lt;span style=&quot;color:#f9faf4;&quot;&gt;(&lt;/span&gt;&lt;span style=&quot;color:#1290c3;font-weight:bold;&quot;&gt;ADC_HandleTypeDef&lt;/span&gt;&lt;span style=&quot;color:#e6e6fa;&quot;&gt;*&lt;/span&gt;&lt;span style=&quot;color:#d9e8f7;&quot;&gt; &lt;/span&gt;&lt;span style=&quot;color:#79abff;&quot;&gt;hadc&lt;/span&gt;&lt;span style=&quot;color:#f9faf4;&quot;&gt;)&lt;/span&gt;&lt;/p&gt;&lt;p style=&quot;margin:0;&quot;&gt;&lt;span style=&quot;color:#f9faf4;&quot;&gt;{&lt;/span&gt;&lt;/p&gt;&lt;p style=&quot;margin:0;&quot;&gt;&lt;span style=&quot;color:#d9e8f7;&quot;&gt;  &lt;/span&gt;&lt;span style=&quot;color:#626262;&quot;&gt;/* Prevent unused argument(s) compilation warning */&lt;/span&gt;&lt;/p&gt;&lt;p style=&quot;margin:0;&quot;&gt;&lt;span style=&quot;color:#d9e8f7;&quot;&gt;  UNUSED&lt;/span&gt;&lt;span style=&quot;color:#f9faf4;&quot;&gt;(&lt;/span&gt;&lt;span style=&quot;color:#79abff;&quot;&gt;hadc&lt;/span&gt;&lt;span style=&quot;color:#f9faf4;&quot;&gt;)&lt;/span&gt;&lt;span style=&quot;color:#e6e6fa;&quot;&gt;;&lt;/span&gt;&lt;/p&gt;&lt;p style=&quot;margin:0;&quot;&gt;&lt;span style=&quot;color:#d9e8f7;&quot;&gt;  &lt;/span&gt;&lt;span style=&quot;color:#dd2867;font-weight:bold;&quot;&gt;if&lt;/span&gt;&lt;span style=&quot;color:#d9e8f7;&quot;&gt; &lt;/span&gt;&lt;span style=&quot;color:#f9faf4;&quot;&gt;(&lt;/span&gt;&lt;span style=&quot;color:#79abff;&quot;&gt;hadc&lt;/span&gt;&lt;span style=&quot;color:#e6e6fa;&quot;&gt;-&amp;gt;&lt;/span&gt;&lt;span style=&quot;color:#66e1f8;&quot;&gt;Instance&lt;/span&gt;&lt;span style=&quot;color:#d9e8f7;&quot;&gt; &lt;/span&gt;&lt;span style=&quot;color:#e6e6fa;&quot;&gt;==&lt;/span&gt;&lt;span style=&quot;color:#d9e8f7;&quot;&gt; ADC1&lt;/span&gt;&lt;span style=&quot;color:#f9faf4;&quot;&gt;)&lt;/span&gt;&lt;/p&gt;&lt;p style=&quot;margin:0;&quot;&gt;&lt;span style=&quot;color:#d9e8f7;&quot;&gt;  &lt;/span&gt;&lt;span style=&quot;color:#f9faf4;&quot;&gt;{&lt;/span&gt;&lt;/p&gt;&lt;p style=&quot;margin:0;&quot;&gt;&lt;span style=&quot;color:#d9e8f7;&quot;&gt;&lt;span style=&quot;white-space: pre;&quot;&gt;&amp;nbsp;&amp;nbsp;&amp;nbsp;&amp;nbsp;&lt;/span&gt;  Sens &lt;/span&gt;&lt;span style=&quot;color:#e6e6fa;&quot;&gt;=&lt;/span&gt;&lt;span style=&quot;color:#d9e8f7;&quot;&gt; &lt;/span&gt;&lt;span style=&quot;color:#a7ec21;font-weight:bold;&quot;&gt;HAL_ADC_GetValue&lt;/span&gt;&lt;span style=&quot;color:#f9faf4;&quot;&gt;(&lt;/span&gt;&lt;span style=&quot;color:#e6e6fa;&quot;&gt;&amp;amp;&lt;/span&gt;&lt;span style=&quot;color:#d9e8f7;&quot;&gt;hadc1&lt;/span&gt;&lt;span style=&quot;color:#f9faf4;&quot;&gt;)&lt;/span&gt;&lt;span style=&quot;color:#e6e6fa;&quot;&gt;;&lt;/span&gt;&lt;/p&gt;&lt;p style=&quot;margin:0;&quot;&gt;&lt;span style=&quot;color:#d9e8f7;&quot;&gt;  &lt;/span&gt;&lt;span style=&quot;color:#f9faf4;&quot;&gt;}&lt;/span&gt;&lt;/p&gt;&lt;p style=&quot;margin:0;&quot;&gt;&lt;span style=&quot;color:#f9faf4;&quot;&gt;}&lt;/span&gt;&lt;/p&gt;&lt;/div&gt;&lt;/div&gt;" style="text;whiteSpace=wrap;html=1;" vertex="1" parent="WIyWlLk6GJQsqaUBKTNV-1">
          <mxGeometry x="760" y="10" width="430" height="170" as="geometry" />
        </mxCell>
        <mxCell id="r3oVHwlRVVATnDZpQC8R-18" value="&lt;div style=&quot;background-color: rgb(47, 47, 47); padding: 0px 0px 0px 2px;&quot;&gt;&lt;div style=&quot;color: rgb(170, 170, 170); background-color: rgb(47, 47, 47); font-family: Consolas; font-size: 10pt; white-space: pre;&quot;&gt;&lt;div style=&quot;padding: 0px 0px 0px 2px;&quot;&gt;&lt;div style=&quot;font-size: 10pt;&quot;&gt;&lt;p style=&quot;margin:0;&quot;&gt;&lt;span style=&quot;color:#d9e8f7;&quot;&gt;  &lt;/span&gt;&lt;span style=&quot;color:#1290c3;font-weight:bold;&quot;&gt;uint8_t&lt;/span&gt;&lt;span style=&quot;color:#d9e8f7;&quot;&gt; &lt;/span&gt;&lt;span style=&quot;color:#ed7f48;&quot;&gt;i&lt;/span&gt;&lt;span style=&quot;color:#e6e6fa;&quot;&gt;=&lt;/span&gt;&lt;span style=&quot;color:#6897bb;&quot;&gt;0&lt;/span&gt;&lt;span style=&quot;color:#e6e6fa;&quot;&gt;;&lt;/span&gt;&lt;/p&gt;&lt;/div&gt;&lt;/div&gt;&lt;p style=&quot;margin:0;&quot;&gt;&lt;span style=&quot;color: rgb(217, 232, 247);&quot;&gt;&lt;span style=&quot;font-size: 10pt; background-color: light-dark(rgb(47, 47, 47), rgb(197, 197, 197));&quot;&gt;  &lt;/span&gt;&lt;span style=&quot;font-size: 10pt; background-color: light-dark(rgb(47, 47, 47), rgb(197, 197, 197)); color: rgb(221, 40, 103); font-weight: bold;&quot;&gt;char&lt;/span&gt;&lt;span style=&quot;font-size: 10pt; background-color: light-dark(rgb(47, 47, 47), rgb(197, 197, 197));&quot;&gt; &lt;/span&gt;&lt;span style=&quot;font-size: 10pt; background-color: light-dark(rgb(47, 47, 47), rgb(197, 197, 197)); color: rgb(237, 127, 72);&quot;&gt;ok&lt;/span&gt;&lt;span style=&quot;font-size: 10pt; background-color: light-dark(rgb(47, 47, 47), rgb(197, 197, 197)); color: rgb(230, 230, 250);&quot;&gt;=&lt;/span&gt;&lt;span style=&quot;font-size: 10pt; background-color: light-dark(rgb(47, 47, 47), rgb(197, 197, 197)); color: rgb(104, 151, 187);&quot;&gt;0&lt;/span&gt;&lt;span style=&quot;font-size: 10pt; background-color: light-dark(rgb(47, 47, 47), rgb(197, 197, 197)); color: rgb(230, 230, 250);&quot;&gt;;&lt;/span&gt;&lt;/span&gt;&lt;/p&gt;&lt;p style=&quot;margin:0;&quot;&gt;&lt;span style=&quot;color: rgb(217, 232, 247);&quot;&gt;  &lt;/span&gt;&lt;span style=&quot;color: rgb(221, 40, 103); font-weight: bold;&quot;&gt;while&lt;/span&gt;&lt;span style=&quot;color: rgb(217, 232, 247);&quot;&gt; &lt;/span&gt;&lt;span style=&quot;color: rgb(249, 250, 244);&quot;&gt;(&lt;/span&gt;&lt;span style=&quot;color: rgb(104, 151, 187);&quot;&gt;1&lt;/span&gt;&lt;span style=&quot;color: rgb(249, 250, 244);&quot;&gt;)&lt;/span&gt;&lt;/p&gt;&lt;p style=&quot;margin:0;&quot;&gt;&lt;span style=&quot;color: rgb(217, 232, 247);&quot;&gt;  &lt;/span&gt;&lt;span style=&quot;color: rgb(249, 250, 244);&quot;&gt;{&lt;/span&gt;&lt;/p&gt;&lt;p style=&quot;margin:0;&quot;&gt;&lt;span style=&quot;background-color: light-dark(rgb(47, 47, 47), rgb(197, 197, 197)); font-size: 10pt; color: rgb(217, 232, 247);&quot;&gt;&amp;nbsp;&amp;nbsp;&amp;nbsp;&amp;nbsp;  &lt;/span&gt;&lt;span style=&quot;background-color: light-dark(rgb(47, 47, 47), rgb(197, 197, 197)); font-size: 10pt; color: rgb(167, 236, 33); font-weight: bold;&quot;&gt;HAL_GPIO_WritePin&lt;/span&gt;&lt;span style=&quot;background-color: light-dark(rgb(47, 47, 47), rgb(197, 197, 197)); font-size: 10pt; color: rgb(249, 250, 244);&quot;&gt;(&lt;/span&gt;&lt;span style=&quot;background-color: light-dark(rgb(47, 47, 47), rgb(197, 197, 197)); font-size: 10pt; color: rgb(217, 232, 247);&quot;&gt;GPIOC&lt;/span&gt;&lt;span style=&quot;background-color: light-dark(rgb(47, 47, 47), rgb(197, 197, 197)); font-size: 10pt; color: rgb(230, 230, 250);&quot;&gt;,&lt;/span&gt;&lt;span style=&quot;background-color: light-dark(rgb(47, 47, 47), rgb(197, 197, 197)); font-size: 10pt; color: rgb(217, 232, 247);&quot;&gt; GPIO_PIN_13&lt;/span&gt;&lt;span style=&quot;background-color: light-dark(rgb(47, 47, 47), rgb(197, 197, 197)); font-size: 10pt; color: rgb(230, 230, 250);&quot;&gt;,&lt;/span&gt;&lt;span style=&quot;background-color: light-dark(rgb(47, 47, 47), rgb(197, 197, 197)); font-size: 10pt; color: rgb(217, 232, 247);&quot;&gt; &lt;/span&gt;&lt;span style=&quot;background-color: light-dark(rgb(47, 47, 47), rgb(197, 197, 197)); font-size: 10pt; color: rgb(255, 191, 38);&quot;&gt;ok&lt;/span&gt;&lt;span style=&quot;background-color: light-dark(rgb(47, 47, 47), rgb(197, 197, 197)); font-size: 10pt; color: rgb(249, 250, 244);&quot;&gt;)&lt;/span&gt;&lt;span style=&quot;background-color: light-dark(rgb(47, 47, 47), rgb(197, 197, 197)); font-size: 10pt; color: rgb(230, 230, 250);&quot;&gt;;&lt;/span&gt;&lt;/p&gt;&lt;p style=&quot;margin:0;&quot;&gt;&lt;span style=&quot;color: rgb(217, 232, 247);&quot;&gt;&lt;span style=&quot;white-space: pre;&quot;&gt;&amp;nbsp;&amp;nbsp;&amp;nbsp;&amp;nbsp;&lt;/span&gt;  Sens1&lt;/span&gt;&lt;span style=&quot;color: rgb(249, 250, 244);&quot;&gt;[&lt;/span&gt;&lt;span style=&quot;color: rgb(255, 191, 38);&quot;&gt;i&lt;/span&gt;&lt;span style=&quot;color: rgb(230, 230, 250);&quot;&gt;++&lt;/span&gt;&lt;span style=&quot;color: rgb(249, 250, 244);&quot;&gt;]&lt;/span&gt;&lt;span style=&quot;color: rgb(230, 230, 250);&quot;&gt;=&lt;/span&gt;&lt;span style=&quot;color: rgb(217, 232, 247);&quot;&gt;Sens&lt;/span&gt;&lt;span style=&quot;color: rgb(230, 230, 250);&quot;&gt;;&lt;/span&gt;&lt;/p&gt;&lt;p style=&quot;margin:0;&quot;&gt;&lt;span style=&quot;color: rgb(217, 232, 247);&quot;&gt;&lt;span style=&quot;white-space: pre;&quot;&gt;&amp;nbsp;&amp;nbsp;&amp;nbsp;&amp;nbsp;&lt;/span&gt;  voltage_sum&lt;/span&gt;&lt;span style=&quot;color: rgb(230, 230, 250);&quot;&gt;=&lt;/span&gt;&lt;span style=&quot;color: rgb(104, 151, 187);&quot;&gt;0&lt;/span&gt;&lt;span style=&quot;color: rgb(230, 230, 250);&quot;&gt;;&lt;/span&gt;&lt;/p&gt;&lt;p style=&quot;margin:0;&quot;&gt;&lt;span style=&quot;color: rgb(217, 232, 247);&quot;&gt;&lt;span style=&quot;white-space: pre;&quot;&gt;&amp;nbsp;&amp;nbsp;&amp;nbsp;&amp;nbsp;&lt;/span&gt;  &lt;/span&gt;&lt;span style=&quot;color: rgb(221, 40, 103); font-weight: bold;&quot;&gt;for&lt;/span&gt;&lt;span style=&quot;color: rgb(217, 232, 247);&quot;&gt; &lt;/span&gt;&lt;span style=&quot;color: rgb(249, 250, 244);&quot;&gt;(&lt;/span&gt;&lt;span style=&quot;color: rgb(221, 40, 103); font-weight: bold;&quot;&gt;int&lt;/span&gt;&lt;span style=&quot;color: rgb(217, 232, 247);&quot;&gt; &lt;/span&gt;&lt;span style=&quot;color: rgb(237, 127, 72);&quot;&gt;var&lt;/span&gt;&lt;span style=&quot;color: rgb(217, 232, 247);&quot;&gt; &lt;/span&gt;&lt;span style=&quot;color: rgb(230, 230, 250);&quot;&gt;=&lt;/span&gt;&lt;span style=&quot;color: rgb(217, 232, 247);&quot;&gt; &lt;/span&gt;&lt;span style=&quot;color: rgb(104, 151, 187);&quot;&gt;0&lt;/span&gt;&lt;span style=&quot;color: rgb(230, 230, 250);&quot;&gt;;&lt;/span&gt;&lt;span style=&quot;color: rgb(217, 232, 247);&quot;&gt; &lt;/span&gt;&lt;span style=&quot;color: rgb(255, 191, 38);&quot;&gt;var&lt;/span&gt;&lt;span style=&quot;color: rgb(217, 232, 247);&quot;&gt; &lt;/span&gt;&lt;span style=&quot;color: rgb(230, 230, 250);&quot;&gt;&amp;lt;&lt;/span&gt;&lt;span style=&quot;color: rgb(217, 232, 247);&quot;&gt; &lt;/span&gt;&lt;span style=&quot;color: rgb(104, 151, 187);&quot;&gt;256&lt;/span&gt;&lt;span style=&quot;color: rgb(230, 230, 250);&quot;&gt;;&lt;/span&gt;&lt;span style=&quot;color: rgb(217, 232, 247);&quot;&gt; &lt;/span&gt;&lt;span style=&quot;color: rgb(230, 230, 250);&quot;&gt;++&lt;/span&gt;&lt;span style=&quot;color: rgb(255, 191, 38);&quot;&gt;var&lt;/span&gt;&lt;span style=&quot;color: rgb(249, 250, 244);&quot;&gt;)&lt;/span&gt;&lt;span style=&quot;color: rgb(217, 232, 247);&quot;&gt; &lt;/span&gt;&lt;span style=&quot;color: rgb(249, 250, 244);&quot;&gt;{&lt;/span&gt;&lt;/p&gt;&lt;p style=&quot;margin:0;&quot;&gt;&lt;span style=&quot;color: rgb(217, 232, 247);&quot;&gt;&lt;span style=&quot;white-space: pre;&quot;&gt;&amp;nbsp;&amp;nbsp;&amp;nbsp;&amp;nbsp;&lt;/span&gt;&lt;span style=&quot;white-space: pre;&quot;&gt;&amp;nbsp;&amp;nbsp;&amp;nbsp;&amp;nbsp;&lt;/span&gt;  voltage_sum&lt;/span&gt;&lt;span style=&quot;color: rgb(230, 230, 250);&quot;&gt;+=&lt;/span&gt;&lt;span style=&quot;color: rgb(217, 232, 247);&quot;&gt;Sens1&lt;/span&gt;&lt;span style=&quot;color: rgb(249, 250, 244);&quot;&gt;[&lt;/span&gt;&lt;span style=&quot;color: rgb(255, 191, 38);&quot;&gt;var&lt;/span&gt;&lt;span style=&quot;color: rgb(249, 250, 244);&quot;&gt;]&lt;/span&gt;&lt;span style=&quot;color: rgb(230, 230, 250);&quot;&gt;*&lt;/span&gt;&lt;span style=&quot;color: rgb(104, 151, 187);&quot;&gt;3.3&lt;/span&gt;&lt;span style=&quot;color: rgb(230, 230, 250);&quot;&gt;/&lt;/span&gt;&lt;span style=&quot;color: rgb(104, 151, 187);&quot;&gt;4096&lt;/span&gt;&lt;span style=&quot;color: rgb(230, 230, 250);&quot;&gt;;&lt;/span&gt;&lt;/p&gt;&lt;p style=&quot;margin:0;&quot;&gt;&lt;span style=&quot;color: rgb(217, 232, 247);&quot;&gt;&lt;span style=&quot;white-space: pre;&quot;&gt;&amp;nbsp;&amp;nbsp;&amp;nbsp;&amp;nbsp;&lt;/span&gt;  &lt;/span&gt;&lt;span style=&quot;color: rgb(249, 250, 244);&quot;&gt;}&lt;/span&gt;&lt;/p&gt;&lt;p style=&quot;margin:0;&quot;&gt;&lt;span style=&quot;color: rgb(217, 232, 247);&quot;&gt;&lt;span style=&quot;white-space: pre;&quot;&gt;&amp;nbsp;&amp;nbsp;&amp;nbsp;&amp;nbsp;&lt;/span&gt;  voltage&lt;/span&gt;&lt;span style=&quot;color: rgb(230, 230, 250);&quot;&gt;=&lt;/span&gt;&lt;span style=&quot;color: rgb(104, 151, 187);&quot;&gt;0.9987&lt;/span&gt;&lt;span style=&quot;color: rgb(230, 230, 250);&quot;&gt;*&lt;/span&gt;&lt;span style=&quot;color: rgb(249, 250, 244);&quot;&gt;(&lt;/span&gt;&lt;span style=&quot;color: rgb(217, 232, 247);&quot;&gt;voltage_sum&lt;/span&gt;&lt;span style=&quot;color: rgb(230, 230, 250);&quot;&gt;/&lt;/span&gt;&lt;span style=&quot;color: rgb(104, 151, 187);&quot;&gt;256&lt;/span&gt;&lt;span style=&quot;color: rgb(249, 250, 244);&quot;&gt;)&lt;/span&gt;&lt;span style=&quot;color: rgb(104, 151, 187);&quot;&gt;+0.0504&lt;/span&gt;&lt;span style=&quot;color: rgb(230, 230, 250);&quot;&gt;;&lt;/span&gt;&lt;/p&gt;&lt;p style=&quot;margin:0;&quot;&gt;&lt;span style=&quot;color: rgb(217, 232, 247);&quot;&gt;&lt;span style=&quot;white-space: pre;&quot;&gt;&amp;nbsp;&amp;nbsp;&amp;nbsp;&amp;nbsp;&lt;/span&gt;  &lt;/span&gt;&lt;span style=&quot;color: rgb(255, 191, 38);&quot;&gt;ok&lt;/span&gt;&lt;span style=&quot;color: rgb(230, 230, 250);&quot;&gt;=&lt;/span&gt;&lt;span style=&quot;color: rgb(104, 151, 187);&quot;&gt;1&lt;/span&gt;&lt;span style=&quot;color: rgb(230, 230, 250);&quot;&gt;;&lt;/span&gt;&lt;/p&gt;&lt;p style=&quot;margin:0;&quot;&gt;&lt;span style=&quot;color: rgb(217, 232, 247);&quot;&gt;&lt;span style=&quot;white-space: pre;&quot;&gt;&amp;nbsp;&amp;nbsp;&amp;nbsp;&amp;nbsp;&lt;/span&gt;  &lt;/span&gt;&lt;span style=&quot;color: rgb(221, 40, 103); font-weight: bold;&quot;&gt;if&lt;/span&gt;&lt;span style=&quot;color: rgb(249, 250, 244);&quot;&gt;(&lt;/span&gt;&lt;span style=&quot;color: rgb(217, 232, 247);&quot;&gt;voltage&lt;/span&gt;&lt;span style=&quot;color: rgb(230, 230, 250);&quot;&gt;&amp;gt;=&lt;/span&gt;&lt;span style=&quot;color: rgb(104, 151, 187);&quot;&gt;0.409&lt;/span&gt;&lt;span style=&quot;color: rgb(249, 250, 244);&quot;&gt;)&lt;/span&gt;&lt;span style=&quot;color: rgb(98, 98, 98);&quot;&gt;//&amp;gt;=0.409V&lt;/span&gt;&lt;/p&gt;&lt;p style=&quot;margin:0;&quot;&gt;&lt;span style=&quot;color: rgb(217, 232, 247);&quot;&gt;&lt;span style=&quot;white-space: pre;&quot;&gt;&amp;nbsp;&amp;nbsp;&amp;nbsp;&amp;nbsp;&lt;/span&gt;  &lt;/span&gt;&lt;span style=&quot;color: rgb(249, 250, 244);&quot;&gt;{&lt;/span&gt;&lt;/p&gt;&lt;p style=&quot;margin:0;&quot;&gt;&lt;span style=&quot;color: rgb(217, 232, 247);&quot;&gt;&lt;span style=&quot;white-space: pre;&quot;&gt;&amp;nbsp;&amp;nbsp;&amp;nbsp;&amp;nbsp;&lt;/span&gt;&lt;span style=&quot;white-space: pre;&quot;&gt;&amp;nbsp;&amp;nbsp;&amp;nbsp;&amp;nbsp;&lt;/span&gt;  &lt;/span&gt;&lt;span style=&quot;color: rgb(221, 40, 103); font-weight: bold;&quot;&gt;if&lt;/span&gt;&lt;span style=&quot;color: rgb(217, 232, 247);&quot;&gt; &lt;/span&gt;&lt;span style=&quot;color: rgb(249, 250, 244);&quot;&gt;(&lt;/span&gt;&lt;span style=&quot;color: rgb(217, 232, 247);&quot;&gt;voltage&lt;/span&gt;&lt;span style=&quot;color: rgb(230, 230, 250);&quot;&gt;&amp;gt;=&lt;/span&gt;&lt;span style=&quot;color: rgb(104, 151, 187);&quot;&gt;0.487&lt;/span&gt;&lt;span style=&quot;color: rgb(249, 250, 244);&quot;&gt;)&lt;/span&gt;&lt;span style=&quot;color: rgb(98, 98, 98);&quot;&gt;//&amp;gt;=0.487V&lt;/span&gt;&lt;/p&gt;&lt;p style=&quot;margin:0;&quot;&gt;&lt;span style=&quot;color: rgb(217, 232, 247);&quot;&gt;&lt;span style=&quot;white-space: pre;&quot;&gt;&amp;nbsp;&amp;nbsp;&amp;nbsp;&amp;nbsp;&lt;/span&gt;&lt;span style=&quot;white-space: pre;&quot;&gt;&amp;nbsp;&amp;nbsp;&amp;nbsp;&amp;nbsp;&lt;/span&gt;  &lt;/span&gt;&lt;span style=&quot;color: rgb(249, 250, 244);&quot;&gt;{&lt;/span&gt;&lt;/p&gt;&lt;p style=&quot;margin:0;&quot;&gt;&lt;span style=&quot;color: rgb(217, 232, 247);&quot;&gt;&lt;span style=&quot;white-space: pre;&quot;&gt;&amp;nbsp;&amp;nbsp;&amp;nbsp;&amp;nbsp;&lt;/span&gt;&lt;span style=&quot;white-space: pre;&quot;&gt;&amp;nbsp;&amp;nbsp;&amp;nbsp;&amp;nbsp;&lt;/span&gt;&lt;span style=&quot;white-space: pre;&quot;&gt;&amp;nbsp;&amp;nbsp;&amp;nbsp;&amp;nbsp;&lt;/span&gt;  &lt;/span&gt;&lt;span style=&quot;color: rgb(221, 40, 103); font-weight: bold;&quot;&gt;if&lt;/span&gt;&lt;span style=&quot;color: rgb(217, 232, 247);&quot;&gt; &lt;/span&gt;&lt;span style=&quot;color: rgb(249, 250, 244);&quot;&gt;(&lt;/span&gt;&lt;span style=&quot;color: rgb(217, 232, 247);&quot;&gt;voltage&lt;/span&gt;&lt;span style=&quot;color: rgb(230, 230, 250);&quot;&gt;&amp;gt;=&lt;/span&gt;&lt;span style=&quot;color: rgb(104, 151, 187);&quot;&gt;0.493&lt;/span&gt;&lt;span style=&quot;color: rgb(249, 250, 244);&quot;&gt;)&lt;/span&gt;&lt;span style=&quot;color: rgb(98, 98, 98);&quot;&gt;//&amp;gt;=0.493V&lt;/span&gt;&lt;/p&gt;&lt;p style=&quot;margin:0;&quot;&gt;&lt;span style=&quot;color: rgb(217, 232, 247);&quot;&gt;&lt;span style=&quot;white-space: pre;&quot;&gt;&amp;nbsp;&amp;nbsp;&amp;nbsp;&amp;nbsp;&lt;/span&gt;&lt;span style=&quot;white-space: pre;&quot;&gt;&amp;nbsp;&amp;nbsp;&amp;nbsp;&amp;nbsp;&lt;/span&gt;&lt;span style=&quot;white-space: pre;&quot;&gt;&amp;nbsp;&amp;nbsp;&amp;nbsp;&amp;nbsp;&lt;/span&gt;  &lt;/span&gt;&lt;span style=&quot;color: rgb(249, 250, 244);&quot;&gt;{&lt;/span&gt;&lt;/p&gt;&lt;p style=&quot;margin:0;&quot;&gt;&lt;span style=&quot;color: rgb(217, 232, 247);&quot;&gt;&lt;span style=&quot;white-space: pre;&quot;&gt;&amp;nbsp;&amp;nbsp;&amp;nbsp;&amp;nbsp;&lt;/span&gt;&lt;span style=&quot;white-space: pre;&quot;&gt;&amp;nbsp;&amp;nbsp;&amp;nbsp;&amp;nbsp;&lt;/span&gt;&lt;span style=&quot;white-space: pre;&quot;&gt;&amp;nbsp;&amp;nbsp;&amp;nbsp;&amp;nbsp;&lt;/span&gt;&lt;span style=&quot;white-space: pre;&quot;&gt;&amp;nbsp;&amp;nbsp;&amp;nbsp;&amp;nbsp;&lt;/span&gt;  &lt;/span&gt;&lt;span style=&quot;color: rgb(221, 40, 103); font-weight: bold;&quot;&gt;if&lt;/span&gt;&lt;span style=&quot;color: rgb(217, 232, 247);&quot;&gt; &lt;/span&gt;&lt;span style=&quot;color: rgb(249, 250, 244);&quot;&gt;(&lt;/span&gt;&lt;span style=&quot;color: rgb(217, 232, 247);&quot;&gt;voltage&lt;/span&gt;&lt;span style=&quot;color: rgb(230, 230, 250);&quot;&gt;&amp;gt;=&lt;/span&gt;&lt;span style=&quot;color: rgb(104, 151, 187);&quot;&gt;0.78125&lt;/span&gt;&lt;span style=&quot;color: rgb(249, 250, 244);&quot;&gt;)&lt;/span&gt;&lt;span style=&quot;color: rgb(98, 98, 98);&quot;&gt;//&amp;gt;=0.78125V&lt;/span&gt;&lt;/p&gt;&lt;p style=&quot;margin:0;&quot;&gt;&lt;span style=&quot;color: rgb(217, 232, 247);&quot;&gt;&lt;span style=&quot;white-space: pre;&quot;&gt;&amp;nbsp;&amp;nbsp;&amp;nbsp;&amp;nbsp;&lt;/span&gt;&lt;span style=&quot;white-space: pre;&quot;&gt;&amp;nbsp;&amp;nbsp;&amp;nbsp;&amp;nbsp;&lt;/span&gt;&lt;span style=&quot;white-space: pre;&quot;&gt;&amp;nbsp;&amp;nbsp;&amp;nbsp;&amp;nbsp;&lt;/span&gt;&lt;span style=&quot;white-space: pre;&quot;&gt;&amp;nbsp;&amp;nbsp;&amp;nbsp;&amp;nbsp;&lt;/span&gt;  &lt;/span&gt;&lt;span style=&quot;color: rgb(249, 250, 244);&quot;&gt;{&lt;/span&gt;&lt;/p&gt;&lt;p style=&quot;margin:0;&quot;&gt;&lt;span style=&quot;color: rgb(217, 232, 247);&quot;&gt;&lt;span style=&quot;white-space: pre;&quot;&gt;&amp;nbsp;&amp;nbsp;&amp;nbsp;&amp;nbsp;&lt;/span&gt;&lt;span style=&quot;white-space: pre;&quot;&gt;&amp;nbsp;&amp;nbsp;&amp;nbsp;&amp;nbsp;&lt;/span&gt;&lt;span style=&quot;white-space: pre;&quot;&gt;&amp;nbsp;&amp;nbsp;&amp;nbsp;&amp;nbsp;&lt;/span&gt;&lt;span style=&quot;white-space: pre;&quot;&gt;&amp;nbsp;&amp;nbsp;&amp;nbsp;&amp;nbsp;&lt;/span&gt;&lt;span style=&quot;white-space: pre;&quot;&gt;&amp;nbsp;&amp;nbsp;&amp;nbsp;&amp;nbsp;&lt;/span&gt;  &lt;/span&gt;&lt;span style=&quot;color: rgb(221, 40, 103); font-weight: bold;&quot;&gt;if&lt;/span&gt;&lt;span style=&quot;color: rgb(217, 232, 247);&quot;&gt; &lt;/span&gt;&lt;span style=&quot;color: rgb(249, 250, 244);&quot;&gt;(&lt;/span&gt;&lt;span style=&quot;color: rgb(217, 232, 247);&quot;&gt;voltage&lt;/span&gt;&lt;span style=&quot;color: rgb(230, 230, 250);&quot;&gt;&amp;gt;=&lt;/span&gt;&lt;span style=&quot;color: rgb(104, 151, 187);&quot;&gt;0.79775&lt;/span&gt;&lt;span style=&quot;color: rgb(249, 250, 244);&quot;&gt;)&lt;/span&gt;&lt;span style=&quot;color: rgb(98, 98, 98);&quot;&gt;//&amp;gt;=0.79775V&lt;/span&gt;&lt;/p&gt;&lt;p style=&quot;margin:0;&quot;&gt;&lt;span style=&quot;color: rgb(217, 232, 247);&quot;&gt;&lt;span style=&quot;white-space: pre;&quot;&gt;&amp;nbsp;&amp;nbsp;&amp;nbsp;&amp;nbsp;&lt;/span&gt;&lt;span style=&quot;white-space: pre;&quot;&gt;&amp;nbsp;&amp;nbsp;&amp;nbsp;&amp;nbsp;&lt;/span&gt;&lt;span style=&quot;white-space: pre;&quot;&gt;&amp;nbsp;&amp;nbsp;&amp;nbsp;&amp;nbsp;&lt;/span&gt;&lt;span style=&quot;white-space: pre;&quot;&gt;&amp;nbsp;&amp;nbsp;&amp;nbsp;&amp;nbsp;&lt;/span&gt;&lt;span style=&quot;white-space: pre;&quot;&gt;&amp;nbsp;&amp;nbsp;&amp;nbsp;&amp;nbsp;&lt;/span&gt;  &lt;/span&gt;&lt;span style=&quot;color: rgb(249, 250, 244);&quot;&gt;{&lt;/span&gt;&lt;/p&gt;&lt;p style=&quot;margin:0;&quot;&gt;&lt;span style=&quot;color: rgb(217, 232, 247);&quot;&gt;&lt;span style=&quot;white-space: pre;&quot;&gt;&amp;nbsp;&amp;nbsp;&amp;nbsp;&amp;nbsp;&lt;/span&gt;&lt;span style=&quot;white-space: pre;&quot;&gt;&amp;nbsp;&amp;nbsp;&amp;nbsp;&amp;nbsp;&lt;/span&gt;&lt;span style=&quot;white-space: pre;&quot;&gt;&amp;nbsp;&amp;nbsp;&amp;nbsp;&amp;nbsp;&lt;/span&gt;&lt;span style=&quot;white-space: pre;&quot;&gt;&amp;nbsp;&amp;nbsp;&amp;nbsp;&amp;nbsp;&lt;/span&gt;&lt;span style=&quot;white-space: pre;&quot;&gt;&amp;nbsp;&amp;nbsp;&amp;nbsp;&amp;nbsp;&lt;/span&gt;&lt;span style=&quot;white-space: pre;&quot;&gt;&amp;nbsp;&amp;nbsp;&amp;nbsp;&amp;nbsp;&lt;/span&gt;  &lt;/span&gt;&lt;span style=&quot;color: rgb(221, 40, 103); font-weight: bold;&quot;&gt;if&lt;/span&gt;&lt;span style=&quot;color: rgb(217, 232, 247);&quot;&gt; &lt;/span&gt;&lt;span style=&quot;color: rgb(249, 250, 244);&quot;&gt;(&lt;/span&gt;&lt;span style=&quot;color: rgb(217, 232, 247);&quot;&gt;voltage&lt;/span&gt;&lt;span style=&quot;color: rgb(230, 230, 250);&quot;&gt;&amp;gt;=&lt;/span&gt;&lt;span style=&quot;color: rgb(104, 151, 187);&quot;&gt;1.236&lt;/span&gt;&lt;span style=&quot;color: rgb(249, 250, 244);&quot;&gt;)&lt;/span&gt;&lt;span style=&quot;color: rgb(98, 98, 98);&quot;&gt;//&amp;gt;=1.236V&lt;/span&gt;&lt;/p&gt;&lt;p style=&quot;margin:0;&quot;&gt;&lt;span style=&quot;color: rgb(217, 232, 247);&quot;&gt;&lt;span style=&quot;white-space: pre;&quot;&gt;&amp;nbsp;&amp;nbsp;&amp;nbsp;&amp;nbsp;&lt;/span&gt;&lt;span style=&quot;white-space: pre;&quot;&gt;&amp;nbsp;&amp;nbsp;&amp;nbsp;&amp;nbsp;&lt;/span&gt;&lt;span style=&quot;white-space: pre;&quot;&gt;&amp;nbsp;&amp;nbsp;&amp;nbsp;&amp;nbsp;&lt;/span&gt;&lt;span style=&quot;white-space: pre;&quot;&gt;&amp;nbsp;&amp;nbsp;&amp;nbsp;&amp;nbsp;&lt;/span&gt;&lt;span style=&quot;white-space: pre;&quot;&gt;&amp;nbsp;&amp;nbsp;&amp;nbsp;&amp;nbsp;&lt;/span&gt;&lt;span style=&quot;white-space: pre;&quot;&gt;&amp;nbsp;&amp;nbsp;&amp;nbsp;&amp;nbsp;&lt;/span&gt;  &lt;/span&gt;&lt;span style=&quot;color: rgb(249, 250, 244);&quot;&gt;{&lt;/span&gt;&lt;/p&gt;&lt;p style=&quot;margin:0;&quot;&gt;&lt;span style=&quot;color: rgb(217, 232, 247);&quot;&gt;&lt;span style=&quot;white-space: pre;&quot;&gt;&amp;nbsp;&amp;nbsp;&amp;nbsp;&amp;nbsp;&lt;/span&gt;&lt;span style=&quot;white-space: pre;&quot;&gt;&amp;nbsp;&amp;nbsp;&amp;nbsp;&amp;nbsp;&lt;/span&gt;&lt;span style=&quot;white-space: pre;&quot;&gt;&amp;nbsp;&amp;nbsp;&amp;nbsp;&amp;nbsp;&lt;/span&gt;&lt;span style=&quot;white-space: pre;&quot;&gt;&amp;nbsp;&amp;nbsp;&amp;nbsp;&amp;nbsp;&lt;/span&gt;&lt;span style=&quot;white-space: pre;&quot;&gt;&amp;nbsp;&amp;nbsp;&amp;nbsp;&amp;nbsp;&lt;/span&gt;&lt;span style=&quot;white-space: pre;&quot;&gt;&amp;nbsp;&amp;nbsp;&amp;nbsp;&amp;nbsp;&lt;/span&gt;&lt;span style=&quot;white-space: pre;&quot;&gt;&amp;nbsp;&amp;nbsp;&amp;nbsp;&amp;nbsp;&lt;/span&gt;  &lt;/span&gt;&lt;span style=&quot;color: rgb(221, 40, 103); font-weight: bold;&quot;&gt;if&lt;/span&gt;&lt;span style=&quot;color: rgb(217, 232, 247);&quot;&gt; &lt;/span&gt;&lt;span style=&quot;color: rgb(249, 250, 244);&quot;&gt;(&lt;/span&gt;&lt;span style=&quot;color: rgb(217, 232, 247);&quot;&gt;voltage&lt;/span&gt;&lt;span style=&quot;color: rgb(230, 230, 250);&quot;&gt;&amp;gt;=&lt;/span&gt;&lt;span style=&quot;color: rgb(104, 151, 187);&quot;&gt;1.286&lt;/span&gt;&lt;span style=&quot;color: rgb(249, 250, 244);&quot;&gt;)&lt;/span&gt;&lt;span style=&quot;color: rgb(98, 98, 98);&quot;&gt;//&amp;gt;=1.286V&lt;/span&gt;&lt;/p&gt;&lt;p style=&quot;margin:0;&quot;&gt;&lt;span style=&quot;color: rgb(217, 232, 247);&quot;&gt;&lt;span style=&quot;white-space: pre;&quot;&gt;&amp;nbsp;&amp;nbsp;&amp;nbsp;&amp;nbsp;&lt;/span&gt;&lt;span style=&quot;white-space: pre;&quot;&gt;&amp;nbsp;&amp;nbsp;&amp;nbsp;&amp;nbsp;&lt;/span&gt;&lt;span style=&quot;white-space: pre;&quot;&gt;&amp;nbsp;&amp;nbsp;&amp;nbsp;&amp;nbsp;&lt;/span&gt;&lt;span style=&quot;white-space: pre;&quot;&gt;&amp;nbsp;&amp;nbsp;&amp;nbsp;&amp;nbsp;&lt;/span&gt;&lt;span style=&quot;white-space: pre;&quot;&gt;&amp;nbsp;&amp;nbsp;&amp;nbsp;&amp;nbsp;&lt;/span&gt;&lt;span style=&quot;white-space: pre;&quot;&gt;&amp;nbsp;&amp;nbsp;&amp;nbsp;&amp;nbsp;&lt;/span&gt;&lt;span style=&quot;white-space: pre;&quot;&gt;&amp;nbsp;&amp;nbsp;&amp;nbsp;&amp;nbsp;&lt;/span&gt;  &lt;/span&gt;&lt;span style=&quot;color: rgb(249, 250, 244);&quot;&gt;{&lt;/span&gt;&lt;/p&gt;&lt;p style=&quot;margin:0;&quot;&gt;&lt;span style=&quot;color: rgb(217, 232, 247);&quot;&gt;&lt;span style=&quot;white-space: pre;&quot;&gt;&amp;nbsp;&amp;nbsp;&amp;nbsp;&amp;nbsp;&lt;/span&gt;&lt;span style=&quot;white-space: pre;&quot;&gt;&amp;nbsp;&amp;nbsp;&amp;nbsp;&amp;nbsp;&lt;/span&gt;&lt;span style=&quot;white-space: pre;&quot;&gt;&amp;nbsp;&amp;nbsp;&amp;nbsp;&amp;nbsp;&lt;/span&gt;&lt;span style=&quot;white-space: pre;&quot;&gt;&amp;nbsp;&amp;nbsp;&amp;nbsp;&amp;nbsp;&lt;/span&gt;&lt;span style=&quot;white-space: pre;&quot;&gt;&amp;nbsp;&amp;nbsp;&amp;nbsp;&amp;nbsp;&lt;/span&gt;&lt;span style=&quot;white-space: pre;&quot;&gt;&amp;nbsp;&amp;nbsp;&amp;nbsp;&amp;nbsp;&lt;/span&gt;&lt;span style=&quot;white-space: pre;&quot;&gt;&amp;nbsp;&amp;nbsp;&amp;nbsp;&amp;nbsp;&lt;/span&gt;&lt;span style=&quot;white-space: pre;&quot;&gt;&amp;nbsp;&amp;nbsp;&amp;nbsp;&amp;nbsp;&lt;/span&gt;&lt;span style=&quot;white-space: pre;&quot;&gt;&amp;nbsp;&amp;nbsp;&amp;nbsp;&amp;nbsp;&lt;/span&gt;&lt;/span&gt;&lt;span style=&quot;color: rgb(221, 40, 103); font-weight: bold;&quot;&gt;if&lt;/span&gt;&lt;span style=&quot;color: rgb(217, 232, 247);&quot;&gt; &lt;/span&gt;&lt;span style=&quot;color: rgb(249, 250, 244);&quot;&gt;(&lt;/span&gt;&lt;span style=&quot;color: rgb(217, 232, 247);&quot;&gt;voltage&lt;/span&gt;&lt;span style=&quot;color: rgb(230, 230, 250);&quot;&gt;&amp;gt;=&lt;/span&gt;&lt;span style=&quot;color: rgb(104, 151, 187);&quot;&gt;2.315&lt;/span&gt;&lt;span style=&quot;color: rgb(249, 250, 244);&quot;&gt;)&lt;/span&gt;&lt;span style=&quot;color: rgb(217, 232, 247);&quot;&gt; &lt;/span&gt;&lt;span style=&quot;color: rgb(98, 98, 98);&quot;&gt;//&amp;gt;=2.315&lt;/span&gt;&lt;/p&gt;&lt;p style=&quot;margin:0;&quot;&gt;&lt;span style=&quot;color: rgb(217, 232, 247);&quot;&gt;&lt;span style=&quot;white-space: pre;&quot;&gt;&amp;nbsp;&amp;nbsp;&amp;nbsp;&amp;nbsp;&lt;/span&gt;&lt;span style=&quot;white-space: pre;&quot;&gt;&amp;nbsp;&amp;nbsp;&amp;nbsp;&amp;nbsp;&lt;/span&gt;&lt;span style=&quot;white-space: pre;&quot;&gt;&amp;nbsp;&amp;nbsp;&amp;nbsp;&amp;nbsp;&lt;/span&gt;&lt;span style=&quot;white-space: pre;&quot;&gt;&amp;nbsp;&amp;nbsp;&amp;nbsp;&amp;nbsp;&lt;/span&gt;&lt;span style=&quot;white-space: pre;&quot;&gt;&amp;nbsp;&amp;nbsp;&amp;nbsp;&amp;nbsp;&lt;/span&gt;&lt;span style=&quot;white-space: pre;&quot;&gt;&amp;nbsp;&amp;nbsp;&amp;nbsp;&amp;nbsp;&lt;/span&gt;&lt;span style=&quot;white-space: pre;&quot;&gt;&amp;nbsp;&amp;nbsp;&amp;nbsp;&amp;nbsp;&lt;/span&gt;&lt;span style=&quot;white-space: pre;&quot;&gt;&amp;nbsp;&amp;nbsp;&amp;nbsp;&amp;nbsp;&lt;/span&gt;&lt;span style=&quot;white-space: pre;&quot;&gt;&amp;nbsp;&amp;nbsp;&amp;nbsp;&amp;nbsp;&lt;/span&gt;&lt;span style=&quot;white-space: pre;&quot;&gt;&amp;nbsp;&amp;nbsp;&amp;nbsp;&amp;nbsp;&lt;/span&gt;&lt;/span&gt;&lt;span style=&quot;color: rgb(98, 98, 98);&quot;&gt;//state!&lt;/span&gt;&lt;/p&gt;&lt;p style=&quot;margin:0;&quot;&gt;&lt;span style=&quot;color: rgb(217, 232, 247);&quot;&gt;&lt;span style=&quot;white-space: pre;&quot;&gt;&amp;nbsp;&amp;nbsp;&amp;nbsp;&amp;nbsp;&lt;/span&gt;&lt;span style=&quot;white-space: pre;&quot;&gt;&amp;nbsp;&amp;nbsp;&amp;nbsp;&amp;nbsp;&lt;/span&gt;&lt;span style=&quot;white-space: pre;&quot;&gt;&amp;nbsp;&amp;nbsp;&amp;nbsp;&amp;nbsp;&lt;/span&gt;&lt;span style=&quot;white-space: pre;&quot;&gt;&amp;nbsp;&amp;nbsp;&amp;nbsp;&amp;nbsp;&lt;/span&gt;&lt;span style=&quot;white-space: pre;&quot;&gt;&amp;nbsp;&amp;nbsp;&amp;nbsp;&amp;nbsp;&lt;/span&gt;&lt;span style=&quot;white-space: pre;&quot;&gt;&amp;nbsp;&amp;nbsp;&amp;nbsp;&amp;nbsp;&lt;/span&gt;&lt;span style=&quot;white-space: pre;&quot;&gt;&amp;nbsp;&amp;nbsp;&amp;nbsp;&amp;nbsp;&lt;/span&gt;&lt;span style=&quot;white-space: pre;&quot;&gt;&amp;nbsp;&amp;nbsp;&amp;nbsp;&amp;nbsp;&lt;/span&gt;&lt;span style=&quot;white-space: pre;&quot;&gt;&amp;nbsp;&amp;nbsp;&amp;nbsp;&amp;nbsp;&lt;/span&gt;&lt;span style=&quot;white-space: pre;&quot;&gt;&amp;nbsp;&amp;nbsp;&amp;nbsp;&amp;nbsp;&lt;/span&gt;&lt;/span&gt;&lt;span style=&quot;color: rgb(255, 191, 38);&quot;&gt;ok&lt;/span&gt;&lt;span style=&quot;color: rgb(230, 230, 250);&quot;&gt;=&lt;/span&gt;&lt;span style=&quot;color: rgb(104, 151, 187);&quot;&gt;0&lt;/span&gt;&lt;span style=&quot;color: rgb(230, 230, 250);&quot;&gt;;&lt;/span&gt;&lt;/p&gt;&lt;p style=&quot;margin:0;&quot;&gt;&lt;span style=&quot;color: rgb(217, 232, 247);&quot;&gt;&lt;span style=&quot;white-space: pre;&quot;&gt;&amp;nbsp;&amp;nbsp;&amp;nbsp;&amp;nbsp;&lt;/span&gt;&lt;span style=&quot;white-space: pre;&quot;&gt;&amp;nbsp;&amp;nbsp;&amp;nbsp;&amp;nbsp;&lt;/span&gt;&lt;span style=&quot;white-space: pre;&quot;&gt;&amp;nbsp;&amp;nbsp;&amp;nbsp;&amp;nbsp;&lt;/span&gt;&lt;span style=&quot;white-space: pre;&quot;&gt;&amp;nbsp;&amp;nbsp;&amp;nbsp;&amp;nbsp;&lt;/span&gt;&lt;span style=&quot;white-space: pre;&quot;&gt;&amp;nbsp;&amp;nbsp;&amp;nbsp;&amp;nbsp;&lt;/span&gt;&lt;span style=&quot;white-space: pre;&quot;&gt;&amp;nbsp;&amp;nbsp;&amp;nbsp;&amp;nbsp;&lt;/span&gt;&lt;span style=&quot;white-space: pre;&quot;&gt;&amp;nbsp;&amp;nbsp;&amp;nbsp;&amp;nbsp;&lt;/span&gt;&lt;span style=&quot;white-space: pre;&quot;&gt;&amp;nbsp;&amp;nbsp;&amp;nbsp;&amp;nbsp;&lt;/span&gt;&lt;span style=&quot;white-space: pre;&quot;&gt;&amp;nbsp;&amp;nbsp;&amp;nbsp;&amp;nbsp;&lt;/span&gt;&lt;/span&gt;&lt;span style=&quot;color: rgb(221, 40, 103); font-weight: bold;&quot;&gt;else&lt;/span&gt;&lt;span style=&quot;color: rgb(217, 232, 247);&quot;&gt; &lt;/span&gt;&lt;span style=&quot;color: rgb(98, 98, 98);&quot;&gt;//stateIV&lt;/span&gt;&lt;/p&gt;&lt;p style=&quot;margin:0;&quot;&gt;&lt;span style=&quot;color: rgb(217, 232, 247);&quot;&gt;&lt;span style=&quot;white-space: pre;&quot;&gt;&amp;nbsp;&amp;nbsp;&amp;nbsp;&amp;nbsp;&lt;/span&gt;&lt;span style=&quot;white-space: pre;&quot;&gt;&amp;nbsp;&amp;nbsp;&amp;nbsp;&amp;nbsp;&lt;/span&gt;&lt;span style=&quot;white-space: pre;&quot;&gt;&amp;nbsp;&amp;nbsp;&amp;nbsp;&amp;nbsp;&lt;/span&gt;&lt;span style=&quot;white-space: pre;&quot;&gt;&amp;nbsp;&amp;nbsp;&amp;nbsp;&amp;nbsp;&lt;/span&gt;&lt;span style=&quot;white-space: pre;&quot;&gt;&amp;nbsp;&amp;nbsp;&amp;nbsp;&amp;nbsp;&lt;/span&gt;&lt;span style=&quot;white-space: pre;&quot;&gt;&amp;nbsp;&amp;nbsp;&amp;nbsp;&amp;nbsp;&lt;/span&gt;&lt;span style=&quot;white-space: pre;&quot;&gt;&amp;nbsp;&amp;nbsp;&amp;nbsp;&amp;nbsp;&lt;/span&gt;&lt;span style=&quot;white-space: pre;&quot;&gt;&amp;nbsp;&amp;nbsp;&amp;nbsp;&amp;nbsp;&lt;/span&gt;&lt;span style=&quot;white-space: pre;&quot;&gt;&amp;nbsp;&amp;nbsp;&amp;nbsp;&amp;nbsp;&lt;/span&gt;&lt;/span&gt;&lt;span style=&quot;color: rgb(249, 250, 244);&quot;&gt;{&lt;/span&gt;&lt;/p&gt;&lt;p style=&quot;margin:0;&quot;&gt;&lt;span style=&quot;color: rgb(217, 232, 247);&quot;&gt;&lt;span style=&quot;white-space: pre;&quot;&gt;&amp;nbsp;&amp;nbsp;&amp;nbsp;&amp;nbsp;&lt;/span&gt;&lt;span style=&quot;white-space: pre;&quot;&gt;&amp;nbsp;&amp;nbsp;&amp;nbsp;&amp;nbsp;&lt;/span&gt;&lt;span style=&quot;white-space: pre;&quot;&gt;&amp;nbsp;&amp;nbsp;&amp;nbsp;&amp;nbsp;&lt;/span&gt;&lt;span style=&quot;white-space: pre;&quot;&gt;&amp;nbsp;&amp;nbsp;&amp;nbsp;&amp;nbsp;&lt;/span&gt;&lt;span style=&quot;white-space: pre;&quot;&gt;&amp;nbsp;&amp;nbsp;&amp;nbsp;&amp;nbsp;&lt;/span&gt;&lt;span style=&quot;white-space: pre;&quot;&gt;&amp;nbsp;&amp;nbsp;&amp;nbsp;&amp;nbsp;&lt;/span&gt;&lt;span style=&quot;white-space: pre;&quot;&gt;&amp;nbsp;&amp;nbsp;&amp;nbsp;&amp;nbsp;&lt;/span&gt;&lt;span style=&quot;white-space: pre;&quot;&gt;&amp;nbsp;&amp;nbsp;&amp;nbsp;&amp;nbsp;&lt;/span&gt;&lt;span style=&quot;white-space: pre;&quot;&gt;&amp;nbsp;&amp;nbsp;&amp;nbsp;&amp;nbsp;&lt;/span&gt;&lt;span style=&quot;white-space: pre;&quot;&gt;&amp;nbsp;&amp;nbsp;&amp;nbsp;&amp;nbsp;&lt;/span&gt;  &lt;/span&gt;&lt;span style=&quot;color: rgb(167, 236, 33); font-weight: bold;&quot;&gt;HAL_GPIO_WritePin&lt;/span&gt;&lt;span style=&quot;color: rgb(249, 250, 244);&quot;&gt;(&lt;/span&gt;&lt;span style=&quot;color: rgb(217, 232, 247);&quot;&gt;GPIOB&lt;/span&gt;&lt;span style=&quot;color: rgb(230, 230, 250);&quot;&gt;,&lt;/span&gt;&lt;span style=&quot;color: rgb(217, 232, 247);&quot;&gt; GPIO_PIN_7&lt;/span&gt;&lt;span style=&quot;color: rgb(230, 230, 250);&quot;&gt;,&lt;/span&gt;&lt;span style=&quot;color: rgb(217, 232, 247);&quot;&gt; &lt;/span&gt;&lt;span style=&quot;color: rgb(104, 151, 187);&quot;&gt;1&lt;/span&gt;&lt;span style=&quot;color: rgb(249, 250, 244);&quot;&gt;)&lt;/span&gt;&lt;span style=&quot;color: rgb(230, 230, 250);&quot;&gt;;&lt;/span&gt;&lt;/p&gt;&lt;p style=&quot;margin:0;&quot;&gt;&lt;span style=&quot;color: rgb(217, 232, 247);&quot;&gt;&lt;span style=&quot;white-space: pre;&quot;&gt;&amp;nbsp;&amp;nbsp;&amp;nbsp;&amp;nbsp;&lt;/span&gt;&lt;span style=&quot;white-space: pre;&quot;&gt;&amp;nbsp;&amp;nbsp;&amp;nbsp;&amp;nbsp;&lt;/span&gt;&lt;span style=&quot;white-space: pre;&quot;&gt;&amp;nbsp;&amp;nbsp;&amp;nbsp;&amp;nbsp;&lt;/span&gt;&lt;span style=&quot;white-space: pre;&quot;&gt;&amp;nbsp;&amp;nbsp;&amp;nbsp;&amp;nbsp;&lt;/span&gt;&lt;span style=&quot;white-space: pre;&quot;&gt;&amp;nbsp;&amp;nbsp;&amp;nbsp;&amp;nbsp;&lt;/span&gt;&lt;span style=&quot;white-space: pre;&quot;&gt;&amp;nbsp;&amp;nbsp;&amp;nbsp;&amp;nbsp;&lt;/span&gt;&lt;span style=&quot;white-space: pre;&quot;&gt;&amp;nbsp;&amp;nbsp;&amp;nbsp;&amp;nbsp;&lt;/span&gt;&lt;span style=&quot;white-space: pre;&quot;&gt;&amp;nbsp;&amp;nbsp;&amp;nbsp;&amp;nbsp;&lt;/span&gt;&lt;span style=&quot;white-space: pre;&quot;&gt;&amp;nbsp;&amp;nbsp;&amp;nbsp;&amp;nbsp;&lt;/span&gt;&lt;span style=&quot;white-space: pre;&quot;&gt;&amp;nbsp;&amp;nbsp;&amp;nbsp;&amp;nbsp;&lt;/span&gt;  &lt;/span&gt;&lt;span style=&quot;color: rgb(167, 236, 33); font-weight: bold;&quot;&gt;HAL_GPIO_WritePin&lt;/span&gt;&lt;span style=&quot;color: rgb(249, 250, 244);&quot;&gt;(&lt;/span&gt;&lt;span style=&quot;color: rgb(217, 232, 247);&quot;&gt;GPIOB&lt;/span&gt;&lt;span style=&quot;color: rgb(230, 230, 250);&quot;&gt;,&lt;/span&gt;&lt;span style=&quot;color: rgb(217, 232, 247);&quot;&gt; GPIO_PIN_8&lt;/span&gt;&lt;span style=&quot;color: rgb(230, 230, 250);&quot;&gt;,&lt;/span&gt;&lt;span style=&quot;color: rgb(217, 232, 247);&quot;&gt; &lt;/span&gt;&lt;span style=&quot;color: rgb(104, 151, 187);&quot;&gt;1&lt;/span&gt;&lt;span style=&quot;color: rgb(249, 250, 244);&quot;&gt;)&lt;/span&gt;&lt;span style=&quot;color: rgb(230, 230, 250);&quot;&gt;;&lt;/span&gt;&lt;/p&gt;&lt;p style=&quot;margin:0;&quot;&gt;&lt;span style=&quot;color: rgb(217, 232, 247);&quot;&gt;&lt;span style=&quot;white-space: pre;&quot;&gt;&amp;nbsp;&amp;nbsp;&amp;nbsp;&amp;nbsp;&lt;/span&gt;&lt;span style=&quot;white-space: pre;&quot;&gt;&amp;nbsp;&amp;nbsp;&amp;nbsp;&amp;nbsp;&lt;/span&gt;&lt;span style=&quot;white-space: pre;&quot;&gt;&amp;nbsp;&amp;nbsp;&amp;nbsp;&amp;nbsp;&lt;/span&gt;&lt;span style=&quot;white-space: pre;&quot;&gt;&amp;nbsp;&amp;nbsp;&amp;nbsp;&amp;nbsp;&lt;/span&gt;&lt;span style=&quot;white-space: pre;&quot;&gt;&amp;nbsp;&amp;nbsp;&amp;nbsp;&amp;nbsp;&lt;/span&gt;&lt;span style=&quot;white-space: pre;&quot;&gt;&amp;nbsp;&amp;nbsp;&amp;nbsp;&amp;nbsp;&lt;/span&gt;&lt;span style=&quot;white-space: pre;&quot;&gt;&amp;nbsp;&amp;nbsp;&amp;nbsp;&amp;nbsp;&lt;/span&gt;&lt;span style=&quot;white-space: pre;&quot;&gt;&amp;nbsp;&amp;nbsp;&amp;nbsp;&amp;nbsp;&lt;/span&gt;&lt;span style=&quot;white-space: pre;&quot;&gt;&amp;nbsp;&amp;nbsp;&amp;nbsp;&amp;nbsp;&lt;/span&gt;&lt;span style=&quot;white-space: pre;&quot;&gt;&amp;nbsp;&amp;nbsp;&amp;nbsp;&amp;nbsp;&lt;/span&gt;  &lt;/span&gt;&lt;span style=&quot;color: rgb(167, 236, 33); font-weight: bold;&quot;&gt;HAL_GPIO_WritePin&lt;/span&gt;&lt;span style=&quot;color: rgb(249, 250, 244);&quot;&gt;(&lt;/span&gt;&lt;span style=&quot;color: rgb(217, 232, 247);&quot;&gt;GPIOB&lt;/span&gt;&lt;span style=&quot;color: rgb(230, 230, 250);&quot;&gt;,&lt;/span&gt;&lt;span style=&quot;color: rgb(217, 232, 247);&quot;&gt; GPIO_PIN_9&lt;/span&gt;&lt;span style=&quot;color: rgb(230, 230, 250);&quot;&gt;,&lt;/span&gt;&lt;span style=&quot;color: rgb(217, 232, 247);&quot;&gt; &lt;/span&gt;&lt;span style=&quot;color: rgb(104, 151, 187);&quot;&gt;0&lt;/span&gt;&lt;span style=&quot;color: rgb(249, 250, 244);&quot;&gt;)&lt;/span&gt;&lt;span style=&quot;color: rgb(230, 230, 250);&quot;&gt;;&lt;/span&gt;&lt;/p&gt;&lt;p style=&quot;margin:0;&quot;&gt;&lt;span style=&quot;color: rgb(217, 232, 247);&quot;&gt;&lt;span style=&quot;white-space: pre;&quot;&gt;&amp;nbsp;&amp;nbsp;&amp;nbsp;&amp;nbsp;&lt;/span&gt;&lt;span style=&quot;white-space: pre;&quot;&gt;&amp;nbsp;&amp;nbsp;&amp;nbsp;&amp;nbsp;&lt;/span&gt;&lt;span style=&quot;white-space: pre;&quot;&gt;&amp;nbsp;&amp;nbsp;&amp;nbsp;&amp;nbsp;&lt;/span&gt;&lt;span style=&quot;white-space: pre;&quot;&gt;&amp;nbsp;&amp;nbsp;&amp;nbsp;&amp;nbsp;&lt;/span&gt;&lt;span style=&quot;white-space: pre;&quot;&gt;&amp;nbsp;&amp;nbsp;&amp;nbsp;&amp;nbsp;&lt;/span&gt;&lt;span style=&quot;white-space: pre;&quot;&gt;&amp;nbsp;&amp;nbsp;&amp;nbsp;&amp;nbsp;&lt;/span&gt;&lt;span style=&quot;white-space: pre;&quot;&gt;&amp;nbsp;&amp;nbsp;&amp;nbsp;&amp;nbsp;&lt;/span&gt;&lt;span style=&quot;white-space: pre;&quot;&gt;&amp;nbsp;&amp;nbsp;&amp;nbsp;&amp;nbsp;&lt;/span&gt;&lt;span style=&quot;white-space: pre;&quot;&gt;&amp;nbsp;&amp;nbsp;&amp;nbsp;&amp;nbsp;&lt;/span&gt;&lt;/span&gt;&lt;span style=&quot;color: rgb(249, 250, 244);&quot;&gt;}&lt;/span&gt;&lt;/p&gt;&lt;p style=&quot;margin:0;&quot;&gt;&lt;span style=&quot;color: rgb(217, 232, 247);&quot;&gt;&lt;span style=&quot;white-space: pre;&quot;&gt;&amp;nbsp;&amp;nbsp;&amp;nbsp;&amp;nbsp;&lt;/span&gt;&lt;span style=&quot;white-space: pre;&quot;&gt;&amp;nbsp;&amp;nbsp;&amp;nbsp;&amp;nbsp;&lt;/span&gt;&lt;span style=&quot;white-space: pre;&quot;&gt;&amp;nbsp;&amp;nbsp;&amp;nbsp;&amp;nbsp;&lt;/span&gt;&lt;span style=&quot;white-space: pre;&quot;&gt;&amp;nbsp;&amp;nbsp;&amp;nbsp;&amp;nbsp;&lt;/span&gt;&lt;span style=&quot;white-space: pre;&quot;&gt;&amp;nbsp;&amp;nbsp;&amp;nbsp;&amp;nbsp;&lt;/span&gt;&lt;span style=&quot;white-space: pre;&quot;&gt;&amp;nbsp;&amp;nbsp;&amp;nbsp;&amp;nbsp;&lt;/span&gt;&lt;span style=&quot;white-space: pre;&quot;&gt;&amp;nbsp;&amp;nbsp;&amp;nbsp;&amp;nbsp;&lt;/span&gt;  &lt;/span&gt;&lt;span style=&quot;color: rgb(249, 250, 244);&quot;&gt;}&lt;/span&gt;&lt;/p&gt;&lt;p style=&quot;margin:0;&quot;&gt;&lt;span style=&quot;color: rgb(217, 232, 247);&quot;&gt;&lt;span style=&quot;white-space: pre;&quot;&gt;&amp;nbsp;&amp;nbsp;&amp;nbsp;&amp;nbsp;&lt;/span&gt;&lt;span style=&quot;white-space: pre;&quot;&gt;&amp;nbsp;&amp;nbsp;&amp;nbsp;&amp;nbsp;&lt;/span&gt;&lt;span style=&quot;white-space: pre;&quot;&gt;&amp;nbsp;&amp;nbsp;&amp;nbsp;&amp;nbsp;&lt;/span&gt;&lt;span style=&quot;white-space: pre;&quot;&gt;&amp;nbsp;&amp;nbsp;&amp;nbsp;&amp;nbsp;&lt;/span&gt;&lt;span style=&quot;white-space: pre;&quot;&gt;&amp;nbsp;&amp;nbsp;&amp;nbsp;&amp;nbsp;&lt;/span&gt;&lt;span style=&quot;white-space: pre;&quot;&gt;&amp;nbsp;&amp;nbsp;&amp;nbsp;&amp;nbsp;&lt;/span&gt;&lt;span style=&quot;white-space: pre;&quot;&gt;&amp;nbsp;&amp;nbsp;&amp;nbsp;&amp;nbsp;&lt;/span&gt;  &lt;/span&gt;&lt;span style=&quot;color: rgb(98, 98, 98);&quot;&gt;//state0&lt;/span&gt;&lt;/p&gt;&lt;p style=&quot;margin:0;&quot;&gt;&lt;span style=&quot;color: rgb(217, 232, 247);&quot;&gt;&lt;span style=&quot;white-space: pre;&quot;&gt;&amp;nbsp;&amp;nbsp;&amp;nbsp;&amp;nbsp;&lt;/span&gt;&lt;span style=&quot;white-space: pre;&quot;&gt;&amp;nbsp;&amp;nbsp;&amp;nbsp;&amp;nbsp;&lt;/span&gt;&lt;span style=&quot;white-space: pre;&quot;&gt;&amp;nbsp;&amp;nbsp;&amp;nbsp;&amp;nbsp;&lt;/span&gt;&lt;span style=&quot;white-space: pre;&quot;&gt;&amp;nbsp;&amp;nbsp;&amp;nbsp;&amp;nbsp;&lt;/span&gt;&lt;span style=&quot;white-space: pre;&quot;&gt;&amp;nbsp;&amp;nbsp;&amp;nbsp;&amp;nbsp;&lt;/span&gt;&lt;span style=&quot;white-space: pre;&quot;&gt;&amp;nbsp;&amp;nbsp;&amp;nbsp;&amp;nbsp;&lt;/span&gt;  &lt;/span&gt;&lt;span style=&quot;color: rgb(249, 250, 244);&quot;&gt;}&lt;/span&gt;&lt;/p&gt;&lt;p style=&quot;margin:0;&quot;&gt;&lt;span style=&quot;color: rgb(217, 232, 247);&quot;&gt;&lt;span style=&quot;white-space: pre;&quot;&gt;&amp;nbsp;&amp;nbsp;&amp;nbsp;&amp;nbsp;&lt;/span&gt;&lt;span style=&quot;white-space: pre;&quot;&gt;&amp;nbsp;&amp;nbsp;&amp;nbsp;&amp;nbsp;&lt;/span&gt;&lt;span style=&quot;white-space: pre;&quot;&gt;&amp;nbsp;&amp;nbsp;&amp;nbsp;&amp;nbsp;&lt;/span&gt;&lt;span style=&quot;white-space: pre;&quot;&gt;&amp;nbsp;&amp;nbsp;&amp;nbsp;&amp;nbsp;&lt;/span&gt;&lt;span style=&quot;white-space: pre;&quot;&gt;&amp;nbsp;&amp;nbsp;&amp;nbsp;&amp;nbsp;&lt;/span&gt;&lt;span style=&quot;white-space: pre;&quot;&gt;&amp;nbsp;&amp;nbsp;&amp;nbsp;&amp;nbsp;&lt;/span&gt;  &lt;/span&gt;&lt;span style=&quot;color: rgb(221, 40, 103); font-weight: bold;&quot;&gt;else&lt;/span&gt;&lt;span style=&quot;color: rgb(217, 232, 247);&quot;&gt; &lt;/span&gt;&lt;span style=&quot;color: rgb(98, 98, 98);&quot;&gt;//stateIII&lt;/span&gt;&lt;/p&gt;&lt;p style=&quot;margin:0;&quot;&gt;&lt;span style=&quot;color: rgb(217, 232, 247);&quot;&gt;&lt;span style=&quot;white-space: pre;&quot;&gt;&amp;nbsp;&amp;nbsp;&amp;nbsp;&amp;nbsp;&lt;/span&gt;&lt;span style=&quot;white-space: pre;&quot;&gt;&amp;nbsp;&amp;nbsp;&amp;nbsp;&amp;nbsp;&lt;/span&gt;&lt;span style=&quot;white-space: pre;&quot;&gt;&amp;nbsp;&amp;nbsp;&amp;nbsp;&amp;nbsp;&lt;/span&gt;&lt;span style=&quot;white-space: pre;&quot;&gt;&amp;nbsp;&amp;nbsp;&amp;nbsp;&amp;nbsp;&lt;/span&gt;&lt;span style=&quot;white-space: pre;&quot;&gt;&amp;nbsp;&amp;nbsp;&amp;nbsp;&amp;nbsp;&lt;/span&gt;&lt;span style=&quot;white-space: pre;&quot;&gt;&amp;nbsp;&amp;nbsp;&amp;nbsp;&amp;nbsp;&lt;/span&gt;  &lt;/span&gt;&lt;span style=&quot;color: rgb(249, 250, 244);&quot;&gt;{&lt;/span&gt;&lt;/p&gt;&lt;p style=&quot;margin:0;&quot;&gt;&lt;span style=&quot;color: rgb(217, 232, 247);&quot;&gt;&lt;span style=&quot;white-space: pre;&quot;&gt;&amp;nbsp;&amp;nbsp;&amp;nbsp;&amp;nbsp;&lt;/span&gt;&lt;span style=&quot;white-space: pre;&quot;&gt;&amp;nbsp;&amp;nbsp;&amp;nbsp;&amp;nbsp;&lt;/span&gt;&lt;span style=&quot;white-space: pre;&quot;&gt;&amp;nbsp;&amp;nbsp;&amp;nbsp;&amp;nbsp;&lt;/span&gt;&lt;span style=&quot;white-space: pre;&quot;&gt;&amp;nbsp;&amp;nbsp;&amp;nbsp;&amp;nbsp;&lt;/span&gt;&lt;span style=&quot;white-space: pre;&quot;&gt;&amp;nbsp;&amp;nbsp;&amp;nbsp;&amp;nbsp;&lt;/span&gt;&lt;span style=&quot;white-space: pre;&quot;&gt;&amp;nbsp;&amp;nbsp;&amp;nbsp;&amp;nbsp;&lt;/span&gt;&lt;span style=&quot;white-space: pre;&quot;&gt;&amp;nbsp;&amp;nbsp;&amp;nbsp;&amp;nbsp;&lt;/span&gt;  &lt;/span&gt;&lt;span style=&quot;color: rgb(167, 236, 33); font-weight: bold;&quot;&gt;HAL_GPIO_WritePin&lt;/span&gt;&lt;span style=&quot;color: rgb(249, 250, 244);&quot;&gt;(&lt;/span&gt;&lt;span style=&quot;color: rgb(217, 232, 247);&quot;&gt;GPIOB&lt;/span&gt;&lt;span style=&quot;color: rgb(230, 230, 250);&quot;&gt;,&lt;/span&gt;&lt;span style=&quot;color: rgb(217, 232, 247);&quot;&gt; GPIO_PIN_7&lt;/span&gt;&lt;span style=&quot;color: rgb(230, 230, 250);&quot;&gt;,&lt;/span&gt;&lt;span style=&quot;color: rgb(217, 232, 247);&quot;&gt; &lt;/span&gt;&lt;span style=&quot;color: rgb(104, 151, 187);&quot;&gt;0&lt;/span&gt;&lt;span style=&quot;color: rgb(249, 250, 244);&quot;&gt;)&lt;/span&gt;&lt;span style=&quot;color: rgb(230, 230, 250);&quot;&gt;;&lt;/span&gt;&lt;/p&gt;&lt;p style=&quot;margin:0;&quot;&gt;&lt;span style=&quot;color: rgb(217, 232, 247);&quot;&gt;&lt;span style=&quot;white-space: pre;&quot;&gt;&amp;nbsp;&amp;nbsp;&amp;nbsp;&amp;nbsp;&lt;/span&gt;&lt;span style=&quot;white-space: pre;&quot;&gt;&amp;nbsp;&amp;nbsp;&amp;nbsp;&amp;nbsp;&lt;/span&gt;&lt;span style=&quot;white-space: pre;&quot;&gt;&amp;nbsp;&amp;nbsp;&amp;nbsp;&amp;nbsp;&lt;/span&gt;&lt;span style=&quot;white-space: pre;&quot;&gt;&amp;nbsp;&amp;nbsp;&amp;nbsp;&amp;nbsp;&lt;/span&gt;&lt;span style=&quot;white-space: pre;&quot;&gt;&amp;nbsp;&amp;nbsp;&amp;nbsp;&amp;nbsp;&lt;/span&gt;&lt;span style=&quot;white-space: pre;&quot;&gt;&amp;nbsp;&amp;nbsp;&amp;nbsp;&amp;nbsp;&lt;/span&gt;&lt;span style=&quot;white-space: pre;&quot;&gt;&amp;nbsp;&amp;nbsp;&amp;nbsp;&amp;nbsp;&lt;/span&gt;  &lt;/span&gt;&lt;span style=&quot;color: rgb(167, 236, 33); font-weight: bold;&quot;&gt;HAL_GPIO_WritePin&lt;/span&gt;&lt;span style=&quot;color: rgb(249, 250, 244);&quot;&gt;(&lt;/span&gt;&lt;span style=&quot;color: rgb(217, 232, 247);&quot;&gt;GPIOB&lt;/span&gt;&lt;span style=&quot;color: rgb(230, 230, 250);&quot;&gt;,&lt;/span&gt;&lt;span style=&quot;color: rgb(217, 232, 247);&quot;&gt; GPIO_PIN_8&lt;/span&gt;&lt;span style=&quot;color: rgb(230, 230, 250);&quot;&gt;,&lt;/span&gt;&lt;span style=&quot;color: rgb(217, 232, 247);&quot;&gt; &lt;/span&gt;&lt;span style=&quot;color: rgb(104, 151, 187);&quot;&gt;1&lt;/span&gt;&lt;span style=&quot;color: rgb(249, 250, 244);&quot;&gt;)&lt;/span&gt;&lt;span style=&quot;color: rgb(230, 230, 250);&quot;&gt;;&lt;/span&gt;&lt;/p&gt;&lt;p style=&quot;margin:0;&quot;&gt;&lt;span style=&quot;color: rgb(217, 232, 247);&quot;&gt;&lt;span style=&quot;white-space: pre;&quot;&gt;&amp;nbsp;&amp;nbsp;&amp;nbsp;&amp;nbsp;&lt;/span&gt;&lt;span style=&quot;white-space: pre;&quot;&gt;&amp;nbsp;&amp;nbsp;&amp;nbsp;&amp;nbsp;&lt;/span&gt;&lt;span style=&quot;white-space: pre;&quot;&gt;&amp;nbsp;&amp;nbsp;&amp;nbsp;&amp;nbsp;&lt;/span&gt;&lt;span style=&quot;white-space: pre;&quot;&gt;&amp;nbsp;&amp;nbsp;&amp;nbsp;&amp;nbsp;&lt;/span&gt;&lt;span style=&quot;white-space: pre;&quot;&gt;&amp;nbsp;&amp;nbsp;&amp;nbsp;&amp;nbsp;&lt;/span&gt;&lt;span style=&quot;white-space: pre;&quot;&gt;&amp;nbsp;&amp;nbsp;&amp;nbsp;&amp;nbsp;&lt;/span&gt;&lt;span style=&quot;white-space: pre;&quot;&gt;&amp;nbsp;&amp;nbsp;&amp;nbsp;&amp;nbsp;&lt;/span&gt;  &lt;/span&gt;&lt;span style=&quot;color: rgb(167, 236, 33); font-weight: bold;&quot;&gt;HAL_GPIO_WritePin&lt;/span&gt;&lt;span style=&quot;color: rgb(249, 250, 244);&quot;&gt;(&lt;/span&gt;&lt;span style=&quot;color: rgb(217, 232, 247);&quot;&gt;GPIOB&lt;/span&gt;&lt;span style=&quot;color: rgb(230, 230, 250);&quot;&gt;,&lt;/span&gt;&lt;span style=&quot;color: rgb(217, 232, 247);&quot;&gt; GPIO_PIN_9&lt;/span&gt;&lt;span style=&quot;color: rgb(230, 230, 250);&quot;&gt;,&lt;/span&gt;&lt;span style=&quot;color: rgb(217, 232, 247);&quot;&gt; &lt;/span&gt;&lt;span style=&quot;color: rgb(104, 151, 187);&quot;&gt;0&lt;/span&gt;&lt;span style=&quot;color: rgb(249, 250, 244);&quot;&gt;)&lt;/span&gt;&lt;span style=&quot;color: rgb(230, 230, 250);&quot;&gt;;&lt;/span&gt;&lt;/p&gt;&lt;p style=&quot;margin:0;&quot;&gt;&lt;span style=&quot;background-color: light-dark(rgb(47, 47, 47), rgb(197, 197, 197)); font-size: 10pt; color: rgb(217, 232, 247);&quot;&gt;&amp;nbsp;&amp;nbsp;&amp;nbsp;&amp;nbsp;&amp;nbsp;&amp;nbsp;&amp;nbsp;&amp;nbsp;&amp;nbsp;&amp;nbsp;&amp;nbsp;&amp;nbsp;&amp;nbsp;&amp;nbsp;&amp;nbsp;&amp;nbsp;&amp;nbsp;&amp;nbsp;&amp;nbsp;&amp;nbsp;&amp;nbsp;&amp;nbsp;&amp;nbsp;&amp;nbsp;  &lt;/span&gt;&lt;span style=&quot;background-color: light-dark(rgb(47, 47, 47), rgb(197, 197, 197)); font-size: 10pt; color: rgb(249, 250, 244);&quot;&gt;}&lt;/span&gt;&lt;/p&gt;&lt;p style=&quot;margin:0;&quot;&gt;&lt;span style=&quot;color: rgb(217, 232, 247);&quot;&gt;&lt;span style=&quot;white-space: pre;&quot;&gt;&amp;nbsp;&amp;nbsp;&amp;nbsp;&amp;nbsp;&lt;/span&gt;&lt;span style=&quot;white-space: pre;&quot;&gt;&amp;nbsp;&amp;nbsp;&amp;nbsp;&amp;nbsp;&lt;/span&gt;&lt;span style=&quot;white-space: pre;&quot;&gt;&amp;nbsp;&amp;nbsp;&amp;nbsp;&amp;nbsp;&lt;/span&gt;&lt;span style=&quot;white-space: pre;&quot;&gt;&amp;nbsp;&amp;nbsp;&amp;nbsp;&amp;nbsp;&lt;/span&gt;&lt;span style=&quot;white-space: pre;&quot;&gt;&amp;nbsp;&amp;nbsp;&amp;nbsp;&amp;nbsp;&lt;/span&gt;  &lt;/span&gt;&lt;span style=&quot;color: rgb(249, 250, 244);&quot;&gt;}&lt;/span&gt;&lt;/p&gt;&lt;p style=&quot;margin:0;&quot;&gt;&lt;span style=&quot;color: rgb(217, 232, 247);&quot;&gt;&lt;span style=&quot;white-space: pre;&quot;&gt;&amp;nbsp;&amp;nbsp;&amp;nbsp;&amp;nbsp;&lt;/span&gt;&lt;span style=&quot;white-space: pre;&quot;&gt;&amp;nbsp;&amp;nbsp;&amp;nbsp;&amp;nbsp;&lt;/span&gt;&lt;span style=&quot;white-space: pre;&quot;&gt;&amp;nbsp;&amp;nbsp;&amp;nbsp;&amp;nbsp;&lt;/span&gt;&lt;span style=&quot;white-space: pre;&quot;&gt;&amp;nbsp;&amp;nbsp;&amp;nbsp;&amp;nbsp;&lt;/span&gt;&lt;span style=&quot;white-space: pre;&quot;&gt;&amp;nbsp;&amp;nbsp;&amp;nbsp;&amp;nbsp;&lt;/span&gt;  &lt;/span&gt;&lt;span style=&quot;color: rgb(98, 98, 98);&quot;&gt;//state0&lt;/span&gt;&lt;/p&gt;&lt;p style=&quot;margin:0;&quot;&gt;&lt;span style=&quot;color: rgb(217, 232, 247);&quot;&gt;&lt;span style=&quot;white-space: pre;&quot;&gt;&amp;nbsp;&amp;nbsp;&amp;nbsp;&amp;nbsp;&lt;/span&gt;&lt;span style=&quot;white-space: pre;&quot;&gt;&amp;nbsp;&amp;nbsp;&amp;nbsp;&amp;nbsp;&lt;/span&gt;&lt;span style=&quot;white-space: pre;&quot;&gt;&amp;nbsp;&amp;nbsp;&amp;nbsp;&amp;nbsp;&lt;/span&gt;&lt;span style=&quot;white-space: pre;&quot;&gt;&amp;nbsp;&amp;nbsp;&amp;nbsp;&amp;nbsp;&lt;/span&gt;  &lt;/span&gt;&lt;span style=&quot;color: rgb(249, 250, 244);&quot;&gt;}&lt;/span&gt;&lt;/p&gt;&lt;p style=&quot;margin:0;&quot;&gt;&lt;span style=&quot;color: rgb(217, 232, 247);&quot;&gt;&lt;span style=&quot;white-space: pre;&quot;&gt;&amp;nbsp;&amp;nbsp;&amp;nbsp;&amp;nbsp;&lt;/span&gt;&lt;span style=&quot;white-space: pre;&quot;&gt;&amp;nbsp;&amp;nbsp;&amp;nbsp;&amp;nbsp;&lt;/span&gt;&lt;span style=&quot;white-space: pre;&quot;&gt;&amp;nbsp;&amp;nbsp;&amp;nbsp;&amp;nbsp;&lt;/span&gt;&lt;span style=&quot;white-space: pre;&quot;&gt;&amp;nbsp;&amp;nbsp;&amp;nbsp;&amp;nbsp;&lt;/span&gt;  &lt;/span&gt;&lt;span style=&quot;color: rgb(221, 40, 103); font-weight: bold;&quot;&gt;else&lt;/span&gt;&lt;span style=&quot;color: rgb(217, 232, 247);&quot;&gt; &lt;/span&gt;&lt;span style=&quot;color: rgb(98, 98, 98);&quot;&gt;//stateII&lt;/span&gt;&lt;/p&gt;&lt;p style=&quot;margin:0;&quot;&gt;&lt;span style=&quot;color: rgb(217, 232, 247);&quot;&gt;&lt;span style=&quot;white-space: pre;&quot;&gt;&amp;nbsp;&amp;nbsp;&amp;nbsp;&amp;nbsp;&lt;/span&gt;&lt;span style=&quot;white-space: pre;&quot;&gt;&amp;nbsp;&amp;nbsp;&amp;nbsp;&amp;nbsp;&lt;/span&gt;&lt;span style=&quot;white-space: pre;&quot;&gt;&amp;nbsp;&amp;nbsp;&amp;nbsp;&amp;nbsp;&lt;/span&gt;&lt;span style=&quot;white-space: pre;&quot;&gt;&amp;nbsp;&amp;nbsp;&amp;nbsp;&amp;nbsp;&lt;/span&gt;  &lt;/span&gt;&lt;span style=&quot;color: rgb(249, 250, 244);&quot;&gt;{&lt;/span&gt;&lt;/p&gt;&lt;p style=&quot;margin:0;&quot;&gt;&lt;span style=&quot;color: rgb(217, 232, 247);&quot;&gt;&lt;span style=&quot;white-space: pre;&quot;&gt;&amp;nbsp;&amp;nbsp;&amp;nbsp;&amp;nbsp;&lt;/span&gt;&lt;span style=&quot;white-space: pre;&quot;&gt;&amp;nbsp;&amp;nbsp;&amp;nbsp;&amp;nbsp;&lt;/span&gt;&lt;span style=&quot;white-space: pre;&quot;&gt;&amp;nbsp;&amp;nbsp;&amp;nbsp;&amp;nbsp;&lt;/span&gt;&lt;span style=&quot;white-space: pre;&quot;&gt;&amp;nbsp;&amp;nbsp;&amp;nbsp;&amp;nbsp;&lt;/span&gt;&lt;span style=&quot;white-space: pre;&quot;&gt;&amp;nbsp;&amp;nbsp;&amp;nbsp;&amp;nbsp;&lt;/span&gt;  &lt;/span&gt;&lt;span style=&quot;color: rgb(167, 236, 33); font-weight: bold;&quot;&gt;HAL_GPIO_WritePin&lt;/span&gt;&lt;span style=&quot;color: rgb(249, 250, 244);&quot;&gt;(&lt;/span&gt;&lt;span style=&quot;color: rgb(217, 232, 247);&quot;&gt;GPIOB&lt;/span&gt;&lt;span style=&quot;color: rgb(230, 230, 250);&quot;&gt;,&lt;/span&gt;&lt;span style=&quot;color: rgb(217, 232, 247);&quot;&gt; GPIO_PIN_7&lt;/span&gt;&lt;span style=&quot;color: rgb(230, 230, 250);&quot;&gt;,&lt;/span&gt;&lt;span style=&quot;color: rgb(217, 232, 247);&quot;&gt; &lt;/span&gt;&lt;span style=&quot;color: rgb(104, 151, 187);&quot;&gt;0&lt;/span&gt;&lt;span style=&quot;color: rgb(249, 250, 244);&quot;&gt;)&lt;/span&gt;&lt;span style=&quot;color: rgb(230, 230, 250);&quot;&gt;;&lt;/span&gt;&lt;/p&gt;&lt;p style=&quot;margin:0;&quot;&gt;&lt;span style=&quot;color: rgb(217, 232, 247);&quot;&gt;&lt;span style=&quot;white-space: pre;&quot;&gt;&amp;nbsp;&amp;nbsp;&amp;nbsp;&amp;nbsp;&lt;/span&gt;&lt;span style=&quot;white-space: pre;&quot;&gt;&amp;nbsp;&amp;nbsp;&amp;nbsp;&amp;nbsp;&lt;/span&gt;&lt;span style=&quot;white-space: pre;&quot;&gt;&amp;nbsp;&amp;nbsp;&amp;nbsp;&amp;nbsp;&lt;/span&gt;&lt;span style=&quot;white-space: pre;&quot;&gt;&amp;nbsp;&amp;nbsp;&amp;nbsp;&amp;nbsp;&lt;/span&gt;&lt;span style=&quot;white-space: pre;&quot;&gt;&amp;nbsp;&amp;nbsp;&amp;nbsp;&amp;nbsp;&lt;/span&gt;  &lt;/span&gt;&lt;span style=&quot;color: rgb(167, 236, 33); font-weight: bold;&quot;&gt;HAL_GPIO_WritePin&lt;/span&gt;&lt;span style=&quot;color: rgb(249, 250, 244);&quot;&gt;(&lt;/span&gt;&lt;span style=&quot;color: rgb(217, 232, 247);&quot;&gt;GPIOB&lt;/span&gt;&lt;span style=&quot;color: rgb(230, 230, 250);&quot;&gt;,&lt;/span&gt;&lt;span style=&quot;color: rgb(217, 232, 247);&quot;&gt; GPIO_PIN_8&lt;/span&gt;&lt;span style=&quot;color: rgb(230, 230, 250);&quot;&gt;,&lt;/span&gt;&lt;span style=&quot;color: rgb(217, 232, 247);&quot;&gt; &lt;/span&gt;&lt;span style=&quot;color: rgb(104, 151, 187);&quot;&gt;0&lt;/span&gt;&lt;span style=&quot;color: rgb(249, 250, 244);&quot;&gt;)&lt;/span&gt;&lt;span style=&quot;color: rgb(230, 230, 250);&quot;&gt;;&lt;/span&gt;&lt;/p&gt;&lt;p style=&quot;margin:0;&quot;&gt;&lt;span style=&quot;color: rgb(217, 232, 247);&quot;&gt;&lt;span style=&quot;white-space: pre;&quot;&gt;&amp;nbsp;&amp;nbsp;&amp;nbsp;&amp;nbsp;&lt;/span&gt;&lt;span style=&quot;white-space: pre;&quot;&gt;&amp;nbsp;&amp;nbsp;&amp;nbsp;&amp;nbsp;&lt;/span&gt;&lt;span style=&quot;white-space: pre;&quot;&gt;&amp;nbsp;&amp;nbsp;&amp;nbsp;&amp;nbsp;&lt;/span&gt;&lt;span style=&quot;white-space: pre;&quot;&gt;&amp;nbsp;&amp;nbsp;&amp;nbsp;&amp;nbsp;&lt;/span&gt;&lt;span style=&quot;white-space: pre;&quot;&gt;&amp;nbsp;&amp;nbsp;&amp;nbsp;&amp;nbsp;&lt;/span&gt;  &lt;/span&gt;&lt;span style=&quot;color: rgb(167, 236, 33); font-weight: bold;&quot;&gt;HAL_GPIO_WritePin&lt;/span&gt;&lt;span style=&quot;color: rgb(249, 250, 244);&quot;&gt;(&lt;/span&gt;&lt;span style=&quot;color: rgb(217, 232, 247);&quot;&gt;GPIOB&lt;/span&gt;&lt;span style=&quot;color: rgb(230, 230, 250);&quot;&gt;,&lt;/span&gt;&lt;span style=&quot;color: rgb(217, 232, 247);&quot;&gt; GPIO_PIN_9&lt;/span&gt;&lt;span style=&quot;color: rgb(230, 230, 250);&quot;&gt;,&lt;/span&gt;&lt;span style=&quot;color: rgb(217, 232, 247);&quot;&gt; &lt;/span&gt;&lt;span style=&quot;color: rgb(104, 151, 187);&quot;&gt;1&lt;/span&gt;&lt;span style=&quot;color: rgb(249, 250, 244);&quot;&gt;)&lt;/span&gt;&lt;span style=&quot;color: rgb(230, 230, 250);&quot;&gt;;&lt;/span&gt;&lt;/p&gt;&lt;p style=&quot;margin:0;&quot;&gt;&lt;span style=&quot;color: rgb(217, 232, 247);&quot;&gt;&lt;span style=&quot;white-space: pre;&quot;&gt;&amp;nbsp;&amp;nbsp;&amp;nbsp;&amp;nbsp;&lt;/span&gt;&lt;span style=&quot;white-space: pre;&quot;&gt;&amp;nbsp;&amp;nbsp;&amp;nbsp;&amp;nbsp;&lt;/span&gt;&lt;span style=&quot;white-space: pre;&quot;&gt;&amp;nbsp;&amp;nbsp;&amp;nbsp;&amp;nbsp;&lt;/span&gt;&lt;span style=&quot;white-space: pre;&quot;&gt;&amp;nbsp;&amp;nbsp;&amp;nbsp;&amp;nbsp;&lt;/span&gt;  &lt;/span&gt;&lt;span style=&quot;color: rgb(249, 250, 244);&quot;&gt;}&lt;/span&gt;&lt;/p&gt;&lt;p style=&quot;margin:0;&quot;&gt;&lt;span style=&quot;color: rgb(217, 232, 247);&quot;&gt;&lt;span style=&quot;white-space: pre;&quot;&gt;&amp;nbsp;&amp;nbsp;&amp;nbsp;&amp;nbsp;&lt;/span&gt;&lt;span style=&quot;white-space: pre;&quot;&gt;&amp;nbsp;&amp;nbsp;&amp;nbsp;&amp;nbsp;&lt;/span&gt;&lt;span style=&quot;white-space: pre;&quot;&gt;&amp;nbsp;&amp;nbsp;&amp;nbsp;&amp;nbsp;&lt;/span&gt;  &lt;/span&gt;&lt;span style=&quot;color: rgb(249, 250, 244);&quot;&gt;}&lt;/span&gt;&lt;/p&gt;&lt;p style=&quot;margin:0;&quot;&gt;&lt;span style=&quot;color: rgb(217, 232, 247);&quot;&gt;&lt;span style=&quot;white-space: pre;&quot;&gt;&amp;nbsp;&amp;nbsp;&amp;nbsp;&amp;nbsp;&lt;/span&gt;&lt;span style=&quot;white-space: pre;&quot;&gt;&amp;nbsp;&amp;nbsp;&amp;nbsp;&amp;nbsp;&lt;/span&gt;&lt;span style=&quot;white-space: pre;&quot;&gt;&amp;nbsp;&amp;nbsp;&amp;nbsp;&amp;nbsp;&lt;/span&gt;  &lt;/span&gt;&lt;span style=&quot;color: rgb(98, 98, 98);&quot;&gt;//state0&lt;/span&gt;&lt;/p&gt;&lt;p style=&quot;margin:0;&quot;&gt;&lt;span style=&quot;color: rgb(217, 232, 247);&quot;&gt;&lt;span style=&quot;white-space: pre;&quot;&gt;&amp;nbsp;&amp;nbsp;&amp;nbsp;&amp;nbsp;&lt;/span&gt;&lt;span style=&quot;white-space: pre;&quot;&gt;&amp;nbsp;&amp;nbsp;&amp;nbsp;&amp;nbsp;&lt;/span&gt;  &lt;/span&gt;&lt;span style=&quot;color: rgb(249, 250, 244);&quot;&gt;}&lt;/span&gt;&lt;/p&gt;&lt;p style=&quot;margin:0;&quot;&gt;&lt;span style=&quot;color: rgb(217, 232, 247);&quot;&gt;&lt;span style=&quot;white-space: pre;&quot;&gt;&amp;nbsp;&amp;nbsp;&amp;nbsp;&amp;nbsp;&lt;/span&gt;&lt;span style=&quot;white-space: pre;&quot;&gt;&amp;nbsp;&amp;nbsp;&amp;nbsp;&amp;nbsp;&lt;/span&gt;  &lt;/span&gt;&lt;span style=&quot;color: rgb(221, 40, 103); font-weight: bold;&quot;&gt;else&lt;/span&gt;&lt;span style=&quot;color: rgb(217, 232, 247);&quot;&gt; &lt;/span&gt;&lt;span style=&quot;color: rgb(98, 98, 98);&quot;&gt;//stateI&lt;/span&gt;&lt;/p&gt;&lt;p style=&quot;margin:0;&quot;&gt;&lt;span style=&quot;color: rgb(217, 232, 247);&quot;&gt;&lt;span style=&quot;white-space: pre;&quot;&gt;&amp;nbsp;&amp;nbsp;&amp;nbsp;&amp;nbsp;&lt;/span&gt;&lt;span style=&quot;white-space: pre;&quot;&gt;&amp;nbsp;&amp;nbsp;&amp;nbsp;&amp;nbsp;&lt;/span&gt;  &lt;/span&gt;&lt;span style=&quot;color: rgb(249, 250, 244);&quot;&gt;{&lt;/span&gt;&lt;/p&gt;&lt;p style=&quot;margin:0;&quot;&gt;&lt;span style=&quot;color: rgb(217, 232, 247);&quot;&gt;&lt;span style=&quot;white-space: pre;&quot;&gt;&amp;nbsp;&amp;nbsp;&amp;nbsp;&amp;nbsp;&lt;/span&gt;&lt;span style=&quot;white-space: pre;&quot;&gt;&amp;nbsp;&amp;nbsp;&amp;nbsp;&amp;nbsp;&lt;/span&gt;&lt;span style=&quot;white-space: pre;&quot;&gt;&amp;nbsp;&amp;nbsp;&amp;nbsp;&amp;nbsp;&lt;/span&gt;&lt;span style=&quot;white-space: pre;&quot;&gt;&amp;nbsp;&amp;nbsp;&amp;nbsp;&amp;nbsp;&lt;/span&gt;&lt;/span&gt;&lt;span style=&quot;color: rgb(167, 236, 33); font-weight: bold;&quot;&gt;HAL_GPIO_WritePin&lt;/span&gt;&lt;span style=&quot;color: rgb(249, 250, 244);&quot;&gt;(&lt;/span&gt;&lt;span style=&quot;color: rgb(217, 232, 247);&quot;&gt;GPIOB&lt;/span&gt;&lt;span style=&quot;color: rgb(230, 230, 250);&quot;&gt;,&lt;/span&gt;&lt;span style=&quot;color: rgb(217, 232, 247);&quot;&gt; GPIO_PIN_7&lt;/span&gt;&lt;span style=&quot;color: rgb(230, 230, 250);&quot;&gt;,&lt;/span&gt;&lt;span style=&quot;color: rgb(217, 232, 247);&quot;&gt; &lt;/span&gt;&lt;span style=&quot;color: rgb(104, 151, 187);&quot;&gt;0&lt;/span&gt;&lt;span style=&quot;color: rgb(249, 250, 244);&quot;&gt;)&lt;/span&gt;&lt;span style=&quot;color: rgb(230, 230, 250);&quot;&gt;;&lt;/span&gt;&lt;/p&gt;&lt;p style=&quot;margin:0;&quot;&gt;&lt;span style=&quot;color: rgb(217, 232, 247);&quot;&gt;&lt;span style=&quot;white-space: pre;&quot;&gt;&amp;nbsp;&amp;nbsp;&amp;nbsp;&amp;nbsp;&lt;/span&gt;&lt;span style=&quot;white-space: pre;&quot;&gt;&amp;nbsp;&amp;nbsp;&amp;nbsp;&amp;nbsp;&lt;/span&gt;&lt;span style=&quot;white-space: pre;&quot;&gt;&amp;nbsp;&amp;nbsp;&amp;nbsp;&amp;nbsp;&lt;/span&gt;&lt;span style=&quot;white-space: pre;&quot;&gt;&amp;nbsp;&amp;nbsp;&amp;nbsp;&amp;nbsp;&lt;/span&gt;&lt;/span&gt;&lt;span style=&quot;color: rgb(167, 236, 33); font-weight: bold;&quot;&gt;HAL_GPIO_WritePin&lt;/span&gt;&lt;span style=&quot;color: rgb(249, 250, 244);&quot;&gt;(&lt;/span&gt;&lt;span style=&quot;color: rgb(217, 232, 247);&quot;&gt;GPIOB&lt;/span&gt;&lt;span style=&quot;color: rgb(230, 230, 250);&quot;&gt;,&lt;/span&gt;&lt;span style=&quot;color: rgb(217, 232, 247);&quot;&gt; GPIO_PIN_8&lt;/span&gt;&lt;span style=&quot;color: rgb(230, 230, 250);&quot;&gt;,&lt;/span&gt;&lt;span style=&quot;color: rgb(217, 232, 247);&quot;&gt; &lt;/span&gt;&lt;span style=&quot;color: rgb(104, 151, 187);&quot;&gt;0&lt;/span&gt;&lt;span style=&quot;color: rgb(249, 250, 244);&quot;&gt;)&lt;/span&gt;&lt;span style=&quot;color: rgb(230, 230, 250);&quot;&gt;;&lt;/span&gt;&lt;/p&gt;&lt;p style=&quot;margin:0;&quot;&gt;&lt;span style=&quot;color: rgb(217, 232, 247);&quot;&gt;&lt;span style=&quot;white-space: pre;&quot;&gt;&amp;nbsp;&amp;nbsp;&amp;nbsp;&amp;nbsp;&lt;/span&gt;&lt;span style=&quot;white-space: pre;&quot;&gt;&amp;nbsp;&amp;nbsp;&amp;nbsp;&amp;nbsp;&lt;/span&gt;&lt;span style=&quot;white-space: pre;&quot;&gt;&amp;nbsp;&amp;nbsp;&amp;nbsp;&amp;nbsp;&lt;/span&gt;&lt;span style=&quot;white-space: pre;&quot;&gt;&amp;nbsp;&amp;nbsp;&amp;nbsp;&amp;nbsp;&lt;/span&gt;&lt;/span&gt;&lt;span style=&quot;color: rgb(167, 236, 33); font-weight: bold;&quot;&gt;HAL_GPIO_WritePin&lt;/span&gt;&lt;span style=&quot;color: rgb(249, 250, 244);&quot;&gt;(&lt;/span&gt;&lt;span style=&quot;color: rgb(217, 232, 247);&quot;&gt;GPIOB&lt;/span&gt;&lt;span style=&quot;color: rgb(230, 230, 250);&quot;&gt;,&lt;/span&gt;&lt;span style=&quot;color: rgb(217, 232, 247);&quot;&gt; GPIO_PIN_9&lt;/span&gt;&lt;span style=&quot;color: rgb(230, 230, 250);&quot;&gt;,&lt;/span&gt;&lt;span style=&quot;color: rgb(217, 232, 247);&quot;&gt; &lt;/span&gt;&lt;span style=&quot;color: rgb(104, 151, 187);&quot;&gt;0&lt;/span&gt;&lt;span style=&quot;color: rgb(249, 250, 244);&quot;&gt;)&lt;/span&gt;&lt;span style=&quot;color: rgb(230, 230, 250);&quot;&gt;;&lt;/span&gt;&lt;/p&gt;&lt;p style=&quot;margin:0;&quot;&gt;&lt;br&gt;&lt;/p&gt;&lt;p style=&quot;margin:0;&quot;&gt;&lt;span style=&quot;color: rgb(217, 232, 247);&quot;&gt;&lt;span style=&quot;white-space: pre;&quot;&gt;&amp;nbsp;&amp;nbsp;&amp;nbsp;&amp;nbsp;&lt;/span&gt;&lt;span style=&quot;white-space: pre;&quot;&gt;&amp;nbsp;&amp;nbsp;&amp;nbsp;&amp;nbsp;&lt;/span&gt;  &lt;/span&gt;&lt;span style=&quot;color: rgb(249, 250, 244);&quot;&gt;}&lt;/span&gt;&lt;/p&gt;&lt;p style=&quot;margin:0;&quot;&gt;&lt;span style=&quot;color: rgb(217, 232, 247);&quot;&gt;&lt;span style=&quot;white-space: pre;&quot;&gt;&amp;nbsp;&amp;nbsp;&amp;nbsp;&amp;nbsp;&lt;/span&gt;  &lt;/span&gt;&lt;span style=&quot;color: rgb(249, 250, 244);&quot;&gt;}&lt;/span&gt;&lt;/p&gt;&lt;p style=&quot;margin:0;&quot;&gt;&lt;span style=&quot;color: rgb(217, 232, 247);&quot;&gt;&lt;span style=&quot;white-space: pre;&quot;&gt;&amp;nbsp;&amp;nbsp;&amp;nbsp;&amp;nbsp;&lt;/span&gt;  &lt;/span&gt;&lt;span style=&quot;color: rgb(221, 40, 103); font-weight: bold;&quot;&gt;else&lt;/span&gt;&lt;/p&gt;&lt;p style=&quot;margin:0;&quot;&gt;&lt;span style=&quot;color: rgb(217, 232, 247);&quot;&gt;&lt;span style=&quot;white-space: pre;&quot;&gt;&amp;nbsp;&amp;nbsp;&amp;nbsp;&amp;nbsp;&lt;/span&gt;&lt;span style=&quot;white-space: pre;&quot;&gt;&amp;nbsp;&amp;nbsp;&amp;nbsp;&amp;nbsp;&lt;/span&gt;  &lt;/span&gt;&lt;span style=&quot;color: rgb(98, 98, 98);&quot;&gt;//state!&lt;/span&gt;&lt;/p&gt;&lt;p style=&quot;margin:0;&quot;&gt;&lt;span style=&quot;color: rgb(217, 232, 247);&quot;&gt;&lt;span style=&quot;white-space: pre;&quot;&gt;&amp;nbsp;&amp;nbsp;&amp;nbsp;&amp;nbsp;&lt;/span&gt;&lt;span style=&quot;white-space: pre;&quot;&gt;&amp;nbsp;&amp;nbsp;&amp;nbsp;&amp;nbsp;&lt;/span&gt;  &lt;/span&gt;&lt;span style=&quot;color: rgb(255, 191, 38);&quot;&gt;ok&lt;/span&gt;&lt;span style=&quot;color: rgb(230, 230, 250);&quot;&gt;=&lt;/span&gt;&lt;span style=&quot;color: rgb(104, 151, 187);&quot;&gt;0&lt;/span&gt;&lt;span style=&quot;color: rgb(230, 230, 250);&quot;&gt;;&lt;/span&gt;&lt;/p&gt;&lt;p style=&quot;margin:0;&quot;&gt;&lt;span style=&quot;color: rgb(217, 232, 247);&quot;&gt;  &lt;/span&gt;&lt;span style=&quot;color: rgb(249, 250, 244);&quot;&gt;}&lt;/span&gt;&lt;/p&gt;&lt;/div&gt;&lt;/div&gt;" style="text;whiteSpace=wrap;html=1;" vertex="1" parent="WIyWlLk6GJQsqaUBKTNV-1">
          <mxGeometry x="620" y="170" width="560" height="1190" as="geometry" />
        </mxCell>
      </root>
    </mxGraphModel>
  </diagram>
</mxfile>
